<?xml version="1.0" encoding="UTF-8"?>
<svg version="1.1" xmlns="http://www.w3.org/2000/svg" width="273" height="360">
<path d="M0,0 L42,0 L42,1 L52,1 L52,2 L53,2 L53,3 L60,3 L60,4 L62,4 L62,5 L65,5 L65,4 L67,4 L67,3 L71,3 L71,5 L66,5 L66,6 L71,6 L71,8 L75,8 L75,9 L76,9 L76,10 L79,10 L79,12 L82,12 L82,11 L83,11 L83,10 L85,10 L85,11 L87,11 L87,12 L89,12 L89,14 L92,14 L92,15 L91,15 L91,16 L89,16 L89,17 L91,17 L91,18 L92,18 L92,19 L94,19 L94,21 L96,21 L96,22 L97,22 L97,23 L98,23 L98,24 L99,24 L99,25 L100,25 L100,24 L101,24 L101,23 L103,23 L103,25 L101,25 L101,26 L102,26 L102,27 L103,27 L103,28 L104,28 L104,29 L105,29 L105,30 L106,30 L106,32 L108,32 L108,34 L109,34 L109,35 L110,35 L110,37 L112,37 L112,39 L113,39 L113,40 L114,40 L114,37 L115,37 L115,40 L116,40 L116,39 L117,39 L117,43 L118,43 L118,42 L119,42 L119,43 L120,43 L120,45 L123,45 L123,46 L121,46 L121,48 L122,48 L122,50 L126,50 L126,52 L129,52 L129,53 L130,53 L130,54 L132,54 L132,55 L135,55 L135,54 L137,54 L137,56 L135,56 L135,57 L137,57 L137,59 L139,59 L139,61 L141,61 L141,63 L143,63 L143,61 L144,61 L144,65 L145,65 L145,63 L146,63 L146,66 L145,66 L145,68 L146,68 L146,67 L147,67 L147,65 L148,65 L148,69 L149,69 L149,68 L150,68 L150,71 L151,71 L151,72 L152,72 L152,75 L153,75 L153,82 L152,82 L152,85 L153,85 L153,86 L152,86 L152,88 L153,88 L153,115 L152,115 L152,117 L153,117 L153,119 L152,119 L152,121 L151,121 L151,123 L150,123 L150,125 L151,125 L151,126 L152,126 L152,129 L151,129 L151,130 L150,130 L150,132 L148,132 L148,130 L146,130 L146,132 L145,132 L145,134 L146,134 L146,137 L144,137 L144,139 L143,139 L143,140 L142,140 L142,141 L141,141 L141,151 L142,151 L142,161 L143,161 L143,209 L142,209 L142,217 L141,217 L141,237 L140,237 L140,238 L139,238 L139,249 L138,249 L138,246 L137,246 L137,237 L136,237 L136,248 L137,248 L137,260 L136,260 L136,249 L135,249 L135,250 L134,250 L134,252 L135,252 L135,253 L134,253 L134,259 L133,259 L133,261 L132,261 L132,269 L133,269 L133,271 L134,271 L134,275 L133,275 L133,281 L132,281 L132,290 L131,290 L131,291 L130,291 L130,298 L128,298 L128,308 L126,308 L126,309 L125,309 L125,308 L123,308 L123,310 L127,310 L127,311 L128,311 L128,312 L133,312 L133,313 L134,313 L134,314 L137,314 L137,313 L138,313 L138,312 L141,312 L141,313 L142,313 L142,314 L145,314 L145,315 L143,315 L143,316 L141,316 L141,317 L145,317 L145,319 L147,319 L147,320 L148,320 L148,321 L150,321 L150,323 L152,323 L152,325 L153,325 L153,335 L152,335 L152,337 L151,337 L151,338 L150,338 L150,339 L149,339 L149,341 L146,341 L146,343 L143,343 L143,344 L145,344 L145,345 L146,345 L146,346 L144,346 L144,347 L143,347 L143,348 L140,348 L140,347 L139,347 L139,346 L136,346 L136,347 L135,347 L135,348 L131,348 L131,349 L130,349 L130,350 L124,350 L124,352 L117,352 L117,353 L116,353 L116,354 L107,354 L107,355 L117,355 L117,357 L108,357 L108,358 L107,358 L107,359 L100,359 L100,360 L85,360 L85,359 L68,359 L68,360 L-7,360 L-7,359 L-25,359 L-25,360 L-39,360 L-39,359 L-45,359 L-45,358 L-47,358 L-47,357 L-56,357 L-56,355 L-46,355 L-46,354 L-55,354 L-55,353 L-56,353 L-56,352 L-62,352 L-62,351 L-63,351 L-63,350 L-69,350 L-69,349 L-70,349 L-70,348 L-74,348 L-74,347 L-75,347 L-75,346 L-78,346 L-78,345 L-82,345 L-82,346 L-85,346 L-85,345 L-84,345 L-84,344 L-82,344 L-82,343 L-85,343 L-85,341 L-88,341 L-88,339 L-89,339 L-89,338 L-90,338 L-90,337 L-92,337 L-92,339 L-93,339 L-93,336 L-92,336 L-92,334 L-93,334 L-93,332 L-94,332 L-94,328 L-92,328 L-92,325 L-91,325 L-91,324 L-90,324 L-90,323 L-89,323 L-89,322 L-88,322 L-88,321 L-86,321 L-86,319 L-84,319 L-84,317 L-80,317 L-80,316 L-82,316 L-82,315 L-84,315 L-84,314 L-80,314 L-80,312 L-77,312 L-77,311 L-75,311 L-75,310 L-73,310 L-73,309 L-66,309 L-66,308 L-67,308 L-67,307 L-66,307 L-66,306 L-67,306 L-67,305 L-68,305 L-68,287 L-69,287 L-69,284 L-70,284 L-70,282 L-88,282 L-88,281 L-66,281 L-66,279 L-87,279 L-87,278 L-88,278 L-88,277 L-92,277 L-92,278 L-93,278 L-93,279 L-96,279 L-96,278 L-97,278 L-97,277 L-99,277 L-99,275 L-102,275 L-102,274 L-100,274 L-100,273 L-99,273 L-99,272 L-102,272 L-102,270 L-104,270 L-104,268 L-106,268 L-106,270 L-108,270 L-108,268 L-109,268 L-109,267 L-110,267 L-110,266 L-111,266 L-111,261 L-110,261 L-110,259 L-112,259 L-112,263 L-113,263 L-113,257 L-112,257 L-112,255 L-114,255 L-114,259 L-115,259 L-115,254 L-116,254 L-116,255 L-117,255 L-117,249 L-119,249 L-119,243 L-120,243 L-120,232 L-119,232 L-119,222 L-120,222 L-120,221 L-119,221 L-119,219 L-120,219 L-120,166 L-119,166 L-119,164 L-120,164 L-120,163 L-119,163 L-119,150 L-120,150 L-120,132 L-119,132 L-119,123 L-118,123 L-118,121 L-117,121 L-117,112 L-116,112 L-116,113 L-115,113 L-115,121 L-114,121 L-114,113 L-113,113 L-113,112 L-112,112 L-112,110 L-113,110 L-113,109 L-112,109 L-112,106 L-113,106 L-113,100 L-112,100 L-112,105 L-110,105 L-110,103 L-111,103 L-111,102 L-110,102 L-110,101 L-111,101 L-111,97 L-110,97 L-110,100 L-109,100 L-109,99 L-108,99 L-108,98 L-109,98 L-109,96 L-108,96 L-108,94 L-106,94 L-106,95 L-103,95 L-103,94 L-100,94 L-100,93 L-99,93 L-99,92 L-96,92 L-96,91 L-95,91 L-95,90 L-91,90 L-91,88 L-85,88 L-85,86 L-78,86 L-78,85 L-85,85 L-85,83 L-79,83 L-79,82 L-78,82 L-78,81 L-68,81 L-68,75 L-66,75 L-66,67 L-65,67 L-65,68 L-64,68 L-64,59 L-63,59 L-63,67 L-62,67 L-62,66 L-61,66 L-61,64 L-62,64 L-62,63 L-61,63 L-61,61 L-62,61 L-62,53 L-61,53 L-61,60 L-60,60 L-60,59 L-59,59 L-59,57 L-60,57 L-60,56 L-59,56 L-59,55 L-60,55 L-60,48 L-59,48 L-59,44 L-58,44 L-58,43 L-57,43 L-57,40 L-56,40 L-56,39 L-55,39 L-55,36 L-54,36 L-54,39 L-52,39 L-52,37 L-53,37 L-53,32 L-52,32 L-52,36 L-51,36 L-51,35 L-50,35 L-50,34 L-51,34 L-51,29 L-50,29 L-50,27 L-49,27 L-49,26 L-48,26 L-48,23 L-46,23 L-46,21 L-44,21 L-44,19 L-43,19 L-43,20 L-42,20 L-42,21 L-41,21 L-41,20 L-40,20 L-40,19 L-39,19 L-39,18 L-38,18 L-38,17 L-41,17 L-41,16 L-39,16 L-39,14 L-37,14 L-37,15 L-34,15 L-34,14 L-33,14 L-33,13 L-32,13 L-32,12 L-30,12 L-30,11 L-29,11 L-29,10 L-27,10 L-27,9 L-26,9 L-26,8 L-23,8 L-23,6 L-19,6 L-19,5 L-23,5 L-23,3 L-19,3 L-19,4 L-17,4 L-17,5 L-15,5 L-15,4 L-14,4 L-14,3 L-9,3 L-9,2 L-8,2 L-8,1 L0,1 Z M83,12 L83,14 L86,14 L86,12 Z M86,14 L86,15 L89,15 L89,14 Z M-38,16 L-38,17 L-37,17 L-37,16 Z M-43,21 L-43,22 L-44,22 L-44,23 L-42,23 L-42,21 Z M-45,23 L-45,25 L-44,25 L-44,23 Z M-46,25 L-46,26 L-45,26 L-45,25 Z M-48,26 L-48,27 L-47,27 L-47,26 Z M-47,27 L-47,28 L-48,28 L-48,30 L-47,30 L-47,29 L-46,29 L-46,27 Z M-50,30 L-50,32 L-48,32 L-48,30 Z M-55,41 L-55,43 L-53,43 L-53,41 Z M114,41 L114,42 L116,42 L116,41 Z M116,43 L116,44 L117,44 L117,43 Z M-57,44 L-57,48 L-56,48 L-56,47 L-55,47 L-55,44 Z M117,45 L117,46 L120,46 L120,45 Z M-59,48 L-59,51 L-57,51 L-57,50 L-58,50 L-58,48 Z M-59,52 L-59,54 L-58,54 L-58,53 L-57,53 L-57,52 Z M-64,68 L-64,73 L-63,73 L-63,68 Z M146,68 L146,70 L147,70 L147,68 Z M147,70 L147,71 L148,71 L148,70 Z M149,71 L149,72 L148,72 L148,73 L150,73 L150,71 Z M-64,74 L-64,75 L-63,75 L-63,74 Z M149,74 L149,76 L150,76 L150,74 Z M-66,75 L-66,81 L-64,81 L-64,77 L-65,77 L-65,75 Z M151,75 L151,77 L150,77 L150,79 L151,79 L151,78 L152,78 L152,75 Z M151,79 L151,81 L152,81 L152,79 Z M-78,83 L-78,84 L-75,84 L-75,85 L-64,85 L-64,83 Z M-108,96 L-108,97 L-106,97 L-106,96 Z M-117,122 L-117,134 L-116,134 L-116,132 L-115,132 L-115,130 L-116,130 L-116,129 L-115,129 L-115,123 L-116,123 L-116,122 Z M149,126 L149,127 L148,127 L148,128 L150,128 L150,126 Z M-119,133 L-119,149 L-118,149 L-118,147 L-117,147 L-117,135 L-118,135 L-118,133 Z M144,134 L144,135 L145,135 L145,134 Z M141,137 L141,139 L143,139 L143,138 L142,138 L142,137 Z M139,139 L139,141 L141,141 L141,140 L140,140 L140,139 Z M137,141 L137,143 L139,143 L139,141 Z M138,144 L138,148 L137,148 L137,150 L138,150 L138,152 L139,152 L139,144 Z M140,151 L140,154 L139,154 L139,155 L140,155 L140,159 L139,159 L139,210 L140,210 L140,214 L139,214 L139,215 L140,215 L140,216 L141,216 L141,151 Z M138,217 L138,220 L137,220 L137,221 L138,221 L138,237 L139,237 L139,217 Z M-119,233 L-119,242 L-118,242 L-118,241 L-117,241 L-117,237 L-118,237 L-118,235 L-117,235 L-117,234 L-118,234 L-118,233 Z M-117,243 L-117,248 L-115,248 L-115,243 Z M-115,250 L-115,254 L-114,254 L-114,250 Z M-110,263 L-110,265 L-108,265 L-108,263 Z M-108,265 L-108,266 L-107,266 L-107,265 Z M-107,266 L-107,268 L-106,268 L-106,266 Z M131,269 L131,271 L130,271 L130,279 L131,279 L131,280 L132,280 L132,269 Z M-99,274 L-99,275 L-97,275 L-97,274 Z M-96,275 L-96,276 L-97,276 L-97,277 L-93,277 L-93,275 Z M129,280 L129,282 L128,282 L128,289 L129,289 L129,290 L130,290 L130,280 Z M-68,282 L-68,287 L-67,287 L-67,286 L-66,286 L-66,282 Z M33,283 L33,284 L35,284 L35,285 L36,285 L36,283 Z M-66,286 L-66,305 L-65,305 L-65,301 L-64,301 L-64,291 L-65,291 L-65,290 L-64,290 L-64,288 L-65,288 L-65,286 Z M34,286 L34,287 L35,287 L35,286 Z M36,287 L36,288 L37,288 L37,287 Z M36,289 L36,298 L37,298 L37,289 Z M127,290 L127,292 L128,292 L128,290 Z M33,291 L33,292 L32,292 L32,294 L33,294 L33,295 L32,295 L32,298 L34,298 L34,291 Z M127,293 L127,297 L128,297 L128,293 Z M126,298 L126,299 L125,299 L125,301 L126,301 L126,302 L125,302 L125,307 L127,307 L127,298 Z M32,299 L32,301 L39,301 L39,299 Z M-64,306 L-64,307 L-63,307 L-63,306 Z M-65,308 L-65,310 L-62,310 L-62,309 L-63,309 L-63,308 Z M-73,310 L-73,311 L-71,311 L-71,312 L-67,312 L-67,311 L-66,311 L-66,310 Z M-76,312 L-76,314 L-73,314 L-73,313 L-72,313 L-72,312 Z M-80,314 L-80,315 L-76,315 L-76,314 Z M137,314 L137,315 L141,315 L141,314 Z M140,345 L140,346 L143,346 L143,345 Z M-45,355 L-45,356 L-46,356 L-46,357 L-38,357 L-38,356 L-39,356 L-39,355 Z M101,355 L101,356 L98,356 L98,357 L107,357 L107,356 L106,356 L106,355 Z M-37,357 L-37,358 L-38,358 L-38,359 L-25,359 L-25,358 L-26,358 L-26,357 Z M87,357 L87,358 L86,358 L86,359 L100,359 L100,358 L98,358 L98,357 Z " fill="#211923" transform="translate(120,0)"/>
<path d="M0,0 L21,0 L21,1 L26,1 L26,2 L30,2 L30,3 L36,3 L36,5 L42,5 L42,6 L44,6 L44,7 L46,7 L46,8 L50,8 L50,10 L53,10 L53,12 L55,12 L55,13 L56,13 L56,14 L59,14 L59,15 L60,15 L60,16 L62,16 L62,17 L63,17 L63,18 L64,18 L64,19 L66,19 L66,20 L67,20 L67,21 L69,21 L69,22 L70,22 L70,23 L71,23 L71,24 L74,24 L74,27 L31,27 L31,28 L28,28 L28,29 L18,29 L18,30 L15,30 L15,31 L9,31 L9,32 L8,32 L8,33 L5,33 L5,34 L4,34 L4,35 L2,35 L2,36 L1,36 L1,37 L0,37 L0,38 L-1,38 L-1,39 L-4,39 L-4,40 L-5,40 L-5,41 L-6,41 L-6,42 L-7,42 L-7,43 L-8,43 L-8,44 L-9,44 L-9,45 L-10,45 L-10,47 L-11,47 L-11,48 L-12,48 L-12,49 L-13,49 L-13,50 L-14,50 L-14,53 L-16,53 L-16,54 L-17,54 L-17,56 L-18,56 L-18,57 L-19,57 L-19,63 L-20,63 L-20,93 L-19,93 L-19,101 L-18,101 L-18,104 L-17,104 L-17,105 L-16,105 L-16,111 L-15,111 L-15,113 L-14,113 L-14,115 L-13,115 L-13,117 L-12,117 L-12,119 L-11,119 L-11,120 L-10,120 L-10,121 L-9,121 L-9,122 L-8,122 L-8,123 L-7,123 L-7,124 L-6,124 L-6,125 L-4,125 L-4,126 L-3,126 L-3,127 L-2,127 L-2,128 L2,128 L2,129 L3,129 L3,130 L4,130 L4,131 L6,131 L6,132 L8,132 L8,133 L14,133 L14,134 L16,134 L16,135 L18,135 L18,136 L22,136 L22,137 L32,137 L32,138 L34,138 L34,139 L74,139 L74,137 L86,137 L86,136 L88,136 L88,135 L94,135 L94,134 L96,134 L96,133 L106,133 L106,130 L110,130 L110,128 L111,128 L111,127 L114,127 L114,126 L115,126 L115,125 L118,125 L118,123 L120,123 L120,122 L123,122 L123,124 L125,124 L125,122 L127,122 L127,132 L128,132 L128,142 L129,142 L129,190 L128,190 L128,198 L127,198 L127,218 L126,218 L126,219 L125,219 L125,230 L124,230 L124,227 L123,227 L123,218 L122,218 L122,229 L123,229 L123,241 L122,241 L122,230 L121,230 L121,231 L120,231 L120,233 L121,233 L121,234 L120,234 L120,240 L119,240 L119,242 L118,242 L118,250 L119,250 L119,252 L120,252 L120,256 L119,256 L119,262 L118,262 L118,271 L117,271 L117,272 L116,272 L116,279 L114,279 L114,289 L112,289 L112,290 L111,290 L111,289 L109,289 L109,292 L106,292 L106,295 L105,295 L105,298 L104,298 L104,299 L103,299 L103,300 L102,300 L102,301 L101,301 L101,303 L100,303 L100,304 L99,304 L99,305 L98,305 L98,306 L96,306 L96,307 L95,307 L95,308 L94,308 L94,309 L92,309 L92,310 L90,310 L90,312 L86,312 L86,313 L79,313 L79,314 L50,314 L50,312 L41,312 L41,310 L38,310 L38,309 L37,309 L37,308 L36,308 L36,307 L35,307 L35,306 L34,306 L34,305 L33,305 L33,303 L32,303 L32,302 L31,302 L31,301 L30,301 L30,297 L28,297 L28,293 L27,293 L27,289 L26,289 L26,282 L25,282 L25,280 L18,280 L18,283 L17,283 L17,287 L16,287 L16,294 L15,294 L15,305 L14,305 L14,311 L13,311 L13,314 L12,314 L12,315 L11,315 L11,316 L10,316 L10,317 L8,317 L8,319 L5,319 L5,320 L4,320 L4,321 L2,321 L2,322 L0,322 L0,323 L-2,323 L-2,325 L-6,325 L-6,326 L-8,326 L-8,327 L-11,327 L-11,328 L-22,328 L-22,329 L-46,329 L-46,328 L-53,328 L-53,327 L-55,327 L-55,326 L-58,326 L-58,325 L-63,325 L-63,324 L-64,324 L-64,323 L-65,323 L-65,322 L-66,322 L-66,320 L-67,320 L-67,319 L-69,319 L-69,318 L-70,318 L-70,316 L-71,316 L-71,314 L-72,314 L-72,309 L-74,309 L-74,299 L-73,299 L-73,307 L-72,307 L-72,298 L-71,298 L-71,297 L-70,297 L-70,301 L-63,301 L-63,300 L-62,300 L-62,303 L-60,303 L-60,298 L-58,298 L-58,305 L-57,305 L-57,307 L-56,307 L-56,301 L-57,301 L-57,297 L-58,297 L-58,287 L-59,287 L-59,272 L-60,272 L-60,257 L-61,257 L-61,223 L-62,223 L-62,217 L-63,217 L-63,170 L-64,170 L-64,121 L-63,121 L-63,93 L-62,93 L-62,89 L-61,89 L-61,81 L-60,81 L-60,77 L-59,77 L-59,71 L-58,71 L-58,60 L-57,60 L-57,58 L-56,58 L-56,57 L-55,57 L-55,51 L-54,51 L-54,46 L-53,46 L-53,41 L-52,41 L-52,38 L-51,38 L-51,35 L-50,35 L-50,30 L-49,30 L-49,27 L-48,27 L-48,26 L-47,26 L-47,24 L-46,24 L-46,22 L-45,22 L-45,21 L-44,21 L-44,20 L-43,20 L-43,19 L-42,19 L-42,18 L-41,18 L-41,17 L-40,17 L-40,16 L-39,16 L-39,15 L-38,15 L-38,14 L-36,14 L-36,13 L-34,13 L-34,12 L-32,12 L-32,10 L-30,10 L-30,9 L-28,9 L-28,8 L-26,8 L-26,7 L-25,7 L-25,6 L-21,6 L-21,5 L-20,5 L-20,4 L-14,4 L-14,3 L-13,3 L-13,2 L-9,2 L-9,1 L0,1 Z M124,125 L124,129 L123,129 L123,131 L124,131 L124,133 L125,133 L125,125 Z M126,132 L126,135 L125,135 L125,136 L126,136 L126,140 L125,140 L125,191 L126,191 L126,195 L125,195 L125,196 L126,196 L126,197 L127,197 L127,132 Z M124,198 L124,201 L123,201 L123,202 L124,202 L124,218 L125,218 L125,198 Z M117,250 L117,252 L116,252 L116,260 L117,260 L117,261 L118,261 L118,250 Z M115,261 L115,263 L114,263 L114,270 L115,270 L115,271 L116,271 L116,261 Z M19,264 L19,265 L21,265 L21,266 L22,266 L22,264 Z M20,267 L20,268 L21,268 L21,267 Z M22,268 L22,269 L23,269 L23,268 Z M22,270 L22,279 L23,279 L23,270 Z M113,271 L113,273 L114,273 L114,271 Z M19,272 L19,273 L18,273 L18,275 L19,275 L19,276 L18,276 L18,279 L20,279 L20,272 Z M113,274 L113,278 L114,278 L114,274 Z M112,279 L112,280 L111,280 L111,282 L112,282 L112,283 L111,283 L111,288 L113,288 L113,279 Z " fill="#790836" transform="translate(134,19)"/>
<path d="M0,0 L21,0 L21,1 L26,1 L26,2 L30,2 L30,3 L36,3 L36,5 L42,5 L42,6 L44,6 L44,7 L46,7 L46,8 L50,8 L50,10 L53,10 L53,12 L55,12 L55,13 L56,13 L56,14 L59,14 L59,15 L60,15 L60,16 L62,16 L62,17 L63,17 L63,18 L64,18 L64,19 L66,19 L66,20 L67,20 L67,21 L69,21 L69,22 L70,22 L70,23 L71,23 L71,24 L74,24 L74,27 L31,27 L31,28 L28,28 L28,29 L18,29 L18,30 L15,30 L15,31 L9,31 L9,32 L8,32 L8,33 L5,33 L5,34 L4,34 L4,35 L2,35 L2,36 L1,36 L1,37 L0,37 L0,38 L-1,38 L-1,39 L-4,39 L-4,40 L-5,40 L-5,41 L-6,41 L-6,42 L-7,42 L-7,43 L-8,43 L-8,44 L-9,44 L-9,45 L-10,45 L-10,47 L-11,47 L-11,48 L-12,48 L-12,49 L-13,49 L-13,50 L-14,50 L-14,53 L-16,53 L-16,54 L-17,54 L-17,56 L-18,56 L-18,57 L-19,57 L-19,63 L-20,63 L-20,93 L-19,93 L-19,101 L-18,101 L-18,104 L-17,104 L-17,105 L-16,105 L-16,111 L-15,111 L-15,113 L-14,113 L-14,115 L-13,115 L-13,117 L-12,117 L-12,119 L-11,119 L-11,120 L-10,120 L-10,121 L-9,121 L-9,122 L-8,122 L-8,123 L-7,123 L-7,124 L-6,124 L-6,125 L-4,125 L-4,126 L-3,126 L-3,127 L-2,127 L-2,128 L2,128 L2,129 L3,129 L3,130 L4,130 L4,131 L6,131 L6,132 L8,132 L8,133 L14,133 L14,134 L16,134 L16,135 L18,135 L18,136 L22,136 L22,137 L32,137 L32,138 L34,138 L34,139 L74,139 L74,137 L86,137 L86,136 L88,136 L88,135 L94,135 L94,134 L96,134 L96,133 L106,133 L106,157 L105,157 L105,161 L104,161 L104,163 L103,163 L103,167 L102,167 L102,169 L101,169 L101,172 L100,172 L100,173 L99,173 L99,177 L98,177 L98,181 L97,181 L97,182 L96,182 L96,185 L95,185 L95,186 L94,186 L94,191 L93,191 L93,192 L92,192 L92,193 L91,193 L91,195 L90,195 L90,197 L89,197 L89,198 L88,198 L88,200 L86,200 L86,201 L84,201 L84,202 L83,202 L83,203 L82,203 L82,204 L81,204 L81,205 L79,205 L79,206 L78,206 L78,208 L76,208 L76,209 L75,209 L75,210 L72,210 L72,211 L68,211 L68,212 L67,212 L67,213 L65,213 L65,214 L63,214 L63,215 L60,215 L60,216 L58,216 L58,217 L55,217 L55,218 L22,218 L22,217 L11,217 L11,216 L10,216 L10,215 L6,215 L6,214 L-1,214 L-1,213 L-4,213 L-4,212 L-6,212 L-6,211 L-7,211 L-7,210 L-9,210 L-9,209 L-11,209 L-11,208 L-12,208 L-12,207 L-14,207 L-14,206 L-16,206 L-16,205 L-17,205 L-17,204 L-18,204 L-18,203 L-19,203 L-19,202 L-20,202 L-20,201 L-21,201 L-21,200 L-23,200 L-23,199 L-24,199 L-24,198 L-25,198 L-25,197 L-26,197 L-26,196 L-27,196 L-27,195 L-28,195 L-28,194 L-29,194 L-29,193 L-30,193 L-30,191 L-31,191 L-31,190 L-32,190 L-32,189 L-34,189 L-34,186 L-35,186 L-35,185 L-36,185 L-36,184 L-37,184 L-37,183 L-38,183 L-38,179 L-39,179 L-39,178 L-40,178 L-40,174 L-42,174 L-42,169 L-43,169 L-43,164 L-44,164 L-44,160 L-45,160 L-45,157 L-46,157 L-46,154 L-47,154 L-47,149 L-48,149 L-48,145 L-49,145 L-49,129 L-50,129 L-50,87 L-49,87 L-49,57 L-48,57 L-48,45 L-47,45 L-47,37 L-46,37 L-46,33 L-45,33 L-45,29 L-44,29 L-44,24 L-43,24 L-43,21 L-42,21 L-42,18 L-41,18 L-41,17 L-40,17 L-40,16 L-39,16 L-39,15 L-38,15 L-38,14 L-36,14 L-36,13 L-34,13 L-34,12 L-32,12 L-32,10 L-30,10 L-30,9 L-28,9 L-28,8 L-26,8 L-26,7 L-25,7 L-25,6 L-21,6 L-21,5 L-20,5 L-20,4 L-14,4 L-14,3 L-13,3 L-13,2 L-9,2 L-9,1 L0,1 Z " fill="#C31112" transform="translate(134,19)"/>
<path d="M0,0 L3,0 L3,2 L5,2 L5,0 L7,0 L7,10 L8,10 L8,20 L9,20 L9,68 L8,68 L8,76 L7,76 L7,96 L6,96 L6,97 L5,97 L5,108 L4,108 L4,105 L3,105 L3,96 L2,96 L2,107 L3,107 L3,119 L2,119 L2,108 L1,108 L1,109 L0,109 L0,111 L1,111 L1,112 L0,112 L0,118 L-1,118 L-1,120 L-2,120 L-2,128 L-1,128 L-1,130 L0,130 L0,134 L-1,134 L-1,140 L-2,140 L-2,149 L-3,149 L-3,150 L-4,150 L-4,157 L-6,157 L-6,167 L-8,167 L-8,168 L-9,168 L-9,167 L-11,167 L-11,170 L-14,170 L-14,173 L-15,173 L-15,176 L-16,176 L-16,177 L-17,177 L-17,178 L-18,178 L-18,179 L-19,179 L-19,181 L-20,181 L-20,182 L-21,182 L-21,183 L-22,183 L-22,184 L-24,184 L-24,185 L-25,185 L-25,186 L-26,186 L-26,187 L-28,187 L-28,188 L-30,188 L-30,190 L-34,190 L-34,191 L-41,191 L-41,192 L-70,192 L-70,190 L-79,190 L-79,188 L-82,188 L-82,187 L-83,187 L-83,186 L-84,186 L-84,185 L-85,185 L-85,184 L-86,184 L-86,183 L-87,183 L-87,181 L-88,181 L-88,180 L-89,180 L-89,179 L-90,179 L-90,175 L-92,175 L-92,171 L-93,171 L-93,167 L-94,167 L-94,160 L-95,160 L-95,158 L-102,158 L-102,161 L-103,161 L-103,165 L-104,165 L-104,172 L-105,172 L-105,183 L-106,183 L-106,189 L-107,189 L-107,192 L-108,192 L-108,193 L-109,193 L-109,194 L-110,194 L-110,195 L-112,195 L-112,197 L-115,197 L-115,198 L-116,198 L-116,199 L-118,199 L-118,200 L-120,200 L-120,201 L-122,201 L-122,203 L-126,203 L-126,204 L-128,204 L-128,205 L-131,205 L-131,206 L-142,206 L-142,207 L-166,207 L-166,206 L-173,206 L-173,205 L-175,205 L-175,204 L-178,204 L-178,203 L-183,203 L-183,202 L-184,202 L-184,201 L-185,201 L-185,200 L-186,200 L-186,198 L-187,198 L-187,197 L-189,197 L-189,196 L-190,196 L-190,194 L-191,194 L-191,192 L-192,192 L-192,187 L-194,187 L-194,177 L-193,177 L-193,185 L-192,185 L-192,176 L-191,176 L-191,175 L-190,175 L-190,179 L-183,179 L-183,178 L-182,178 L-182,181 L-180,181 L-180,176 L-178,176 L-178,183 L-177,183 L-177,185 L-175,185 L-175,186 L-174,186 L-174,188 L-173,188 L-173,189 L-171,189 L-171,190 L-164,190 L-164,191 L-147,191 L-147,190 L-138,190 L-138,189 L-137,189 L-137,188 L-130,188 L-130,187 L-128,187 L-128,186 L-127,186 L-127,185 L-126,185 L-126,184 L-125,184 L-125,183 L-124,183 L-124,181 L-123,181 L-123,176 L-121,176 L-121,125 L-120,125 L-120,123 L-119,123 L-119,121 L-116,121 L-116,120 L-112,120 L-112,121 L-58,121 L-58,119 L-44,119 L-44,121 L-46,121 L-46,122 L-47,122 L-47,123 L-48,123 L-48,124 L-49,124 L-49,125 L-51,125 L-51,126 L-52,126 L-52,127 L-54,127 L-54,128 L-55,128 L-55,129 L-57,129 L-57,130 L-58,130 L-58,131 L-59,131 L-59,132 L-61,132 L-61,133 L-66,133 L-66,135 L-73,135 L-73,136 L-78,136 L-78,153 L-77,153 L-77,155 L-76,155 L-76,162 L-75,162 L-75,163 L-74,163 L-74,164 L-73,164 L-73,167 L-72,167 L-72,168 L-71,168 L-71,170 L-69,170 L-69,171 L-67,171 L-67,172 L-64,172 L-64,173 L-41,173 L-41,172 L-40,172 L-40,171 L-36,171 L-36,170 L-35,170 L-35,169 L-34,169 L-34,168 L-33,168 L-33,167 L-32,167 L-32,164 L-31,164 L-31,163 L-30,163 L-30,160 L-29,160 L-29,156 L-28,156 L-28,151 L-27,151 L-27,149 L-26,149 L-26,143 L-25,143 L-25,139 L-24,139 L-24,135 L-23,135 L-23,131 L-22,131 L-22,129 L-21,129 L-21,123 L-20,123 L-20,121 L-19,121 L-19,107 L-18,107 L-18,101 L-17,101 L-17,91 L-16,91 L-16,86 L-15,86 L-15,73 L-14,73 L-14,63 L-13,63 L-13,25 L-14,25 L-14,8 L-10,8 L-10,6 L-9,6 L-9,5 L-6,5 L-6,4 L-5,4 L-5,3 L-2,3 L-2,1 L0,1 Z M4,3 L4,7 L3,7 L3,9 L4,9 L4,11 L5,11 L5,3 Z M6,10 L6,13 L5,13 L5,14 L6,14 L6,18 L5,18 L5,69 L6,69 L6,73 L5,73 L5,74 L6,74 L6,75 L7,75 L7,10 Z M4,76 L4,79 L3,79 L3,80 L4,80 L4,96 L5,96 L5,76 Z M-3,128 L-3,130 L-4,130 L-4,138 L-3,138 L-3,139 L-2,139 L-2,128 Z M-5,139 L-5,141 L-6,141 L-6,148 L-5,148 L-5,149 L-4,149 L-4,139 Z M-101,142 L-101,143 L-99,143 L-99,144 L-98,144 L-98,142 Z M-100,145 L-100,146 L-99,146 L-99,145 Z M-98,146 L-98,147 L-97,147 L-97,146 Z M-98,148 L-98,157 L-97,157 L-97,148 Z M-7,149 L-7,151 L-6,151 L-6,149 Z M-101,150 L-101,151 L-102,151 L-102,153 L-101,153 L-101,154 L-102,154 L-102,157 L-100,157 L-100,150 Z M-7,152 L-7,156 L-6,156 L-6,152 Z M-8,157 L-8,158 L-9,158 L-9,160 L-8,160 L-8,161 L-9,161 L-9,166 L-7,166 L-7,157 Z " fill="#1D010D" transform="translate(254,141)"/>
<path d="M0,0 L37,0 L37,1 L47,1 L47,2 L52,2 L52,3 L62,3 L62,4 L64,4 L64,5 L67,5 L67,7 L69,7 L69,8 L70,8 L70,9 L71,9 L71,10 L72,10 L72,11 L73,11 L73,12 L74,12 L74,14 L75,14 L75,15 L76,15 L76,18 L77,18 L77,24 L79,24 L79,51 L78,51 L78,54 L77,54 L77,56 L76,56 L76,57 L75,57 L75,58 L74,58 L74,59 L73,59 L73,60 L72,60 L72,61 L70,61 L70,62 L69,62 L69,63 L68,63 L68,64 L66,64 L66,65 L64,65 L64,66 L63,66 L63,67 L61,67 L61,68 L58,68 L58,69 L55,69 L55,70 L54,70 L54,71 L46,71 L46,72 L41,72 L41,73 L38,73 L38,74 L34,74 L34,75 L30,75 L30,76 L-4,76 L-4,75 L-6,75 L-6,74 L-12,74 L-12,73 L-16,73 L-16,72 L-19,72 L-19,71 L-23,71 L-23,69 L-25,69 L-25,68 L-26,68 L-26,67 L-29,67 L-29,66 L-30,66 L-30,65 L-31,65 L-31,64 L-32,64 L-32,63 L-33,63 L-33,62 L-34,62 L-34,60 L-35,60 L-35,59 L-37,59 L-37,57 L-38,57 L-38,53 L-39,53 L-39,49 L-41,49 L-41,22 L-40,22 L-40,16 L-38,16 L-38,14 L-37,14 L-37,12 L-36,12 L-36,11 L-34,11 L-34,10 L-33,10 L-33,9 L-32,9 L-32,8 L-30,8 L-30,7 L-27,7 L-27,6 L-26,6 L-26,5 L-25,5 L-25,4 L-24,4 L-24,3 L-18,3 L-18,2 L-16,2 L-16,1 L0,1 Z " fill="#94C7DA" transform="translate(174,64)"/>
<path d="M0,0 L14,0 L14,2 L15,2 L15,128 L16,128 L16,153 L11,153 L11,154 L-2,154 L-2,152 L-4,152 L-4,151 L-5,151 L-5,150 L-7,150 L-7,148 L-8,148 L-8,147 L-9,147 L-9,146 L-10,146 L-10,143 L-11,143 L-11,142 L-12,142 L-12,141 L-13,141 L-13,138 L-14,138 L-14,133 L-15,133 L-15,130 L-16,130 L-16,124 L-17,124 L-17,120 L-18,120 L-18,100 L-19,100 L-19,68 L-18,68 L-18,20 L-17,20 L-17,18 L-16,18 L-16,12 L-15,12 L-15,8 L-13,8 L-13,7 L-12,7 L-12,4 L-10,4 L-10,3 L-8,3 L-8,2 L-3,2 L-3,1 L0,1 Z " fill="#800932" transform="translate(38,106)"/>
<path d="M0,0 L4,0 L4,1 L1,1 L1,2 L0,2 L0,3 L-1,3 L-1,4 L-2,4 L-2,9 L-3,9 L-3,10 L-4,10 L-4,15 L-5,15 L-5,20 L-4,20 L-4,25 L-3,25 L-3,27 L-2,27 L-2,28 L-1,28 L-1,30 L0,30 L0,31 L1,31 L1,32 L2,32 L2,33 L3,33 L3,34 L4,34 L4,35 L5,35 L5,36 L7,36 L7,37 L9,37 L9,38 L11,38 L11,39 L12,39 L12,40 L15,40 L15,41 L16,41 L16,42 L20,42 L20,43 L21,43 L21,44 L26,44 L26,46 L32,46 L32,47 L36,47 L36,48 L42,48 L42,49 L66,49 L66,48 L76,48 L76,47 L78,47 L78,46 L87,46 L87,45 L88,45 L88,44 L90,44 L90,43 L92,43 L92,42 L94,42 L94,41 L95,41 L95,40 L97,40 L97,39 L98,39 L98,36 L99,36 L99,34 L100,34 L100,33 L101,33 L101,21 L103,21 L103,48 L102,48 L102,51 L101,51 L101,53 L100,53 L100,54 L99,54 L99,55 L98,55 L98,56 L97,56 L97,57 L96,57 L96,58 L94,58 L94,59 L93,59 L93,60 L92,60 L92,61 L90,61 L90,62 L88,62 L88,63 L87,63 L87,64 L85,64 L85,65 L82,65 L82,66 L79,66 L79,67 L78,67 L78,68 L70,68 L70,69 L65,69 L65,70 L62,70 L62,71 L58,71 L58,72 L54,72 L54,73 L20,73 L20,72 L18,72 L18,71 L12,71 L12,70 L8,70 L8,69 L5,69 L5,68 L1,68 L1,66 L-1,66 L-1,65 L-2,65 L-2,64 L-5,64 L-5,63 L-6,63 L-6,62 L-7,62 L-7,61 L-8,61 L-8,60 L-9,60 L-9,59 L-10,59 L-10,57 L-11,57 L-11,56 L-13,56 L-13,54 L-14,54 L-14,50 L-15,50 L-15,46 L-17,46 L-17,19 L-16,19 L-16,13 L-14,13 L-14,11 L-13,11 L-13,9 L-12,9 L-12,8 L-10,8 L-10,7 L-9,7 L-9,6 L-8,6 L-8,5 L-6,5 L-6,4 L-3,4 L-3,3 L-2,3 L-2,2 L-1,2 L-1,1 L0,1 Z " fill="#4E7C9F" transform="translate(150,67)"/>
<path d="M0,0 L22,0 L22,1 L30,1 L30,2 L32,2 L32,4 L36,4 L36,6 L40,6 L40,7 L41,7 L41,8 L42,8 L42,9 L43,9 L43,10 L44,10 L44,12 L45,12 L45,19 L44,19 L44,20 L43,20 L43,21 L42,21 L42,22 L41,22 L41,23 L40,23 L40,24 L29,24 L29,23 L28,23 L28,22 L22,22 L22,21 L21,21 L21,20 L18,20 L18,19 L14,19 L14,18 L2,18 L2,17 L1,17 L1,16 L0,16 L0,15 L-1,15 L-1,14 L-2,14 L-2,13 L-3,13 L-3,11 L-4,11 L-4,9 L-5,9 L-5,5 L-4,5 L-4,4 L-3,4 L-3,3 L-2,3 L-2,2 L-1,2 L-1,1 L0,1 Z " fill="#F8FBFC" transform="translate(200,67)"/>
<path d="M0,0 L2,0 L2,2 L3,2 L3,3 L4,3 L4,4 L5,4 L5,6 L6,6 L6,7 L4,7 L4,5 L2,5 L2,4 L1,4 L1,2 L0,2 Z " fill="#1B000A" transform="translate(228,30)"/>
<path d="M0,0 L1,0 L1,12 L0,12 Z " fill="#19000B" transform="translate(254,259)"/>
<path d="M0,0 L4,0 L4,1 L6,1 L6,2 L-1,2 L-1,1 L0,1 Z " fill="#1A000B" transform="translate(181,1)"/>
<path d="M0,0 L2,0 L2,4 L1,4 L1,5 L0,5 Z " fill="#363A3A" transform="translate(23,328)"/>
<path d="M0,0 L9,0 L9,1 L0,1 Z " fill="#1B000B" transform="translate(172,0)"/>
<path d="M0,0 L5,0 L5,1 L4,1 L4,2 L1,2 L1,1 L0,1 Z " fill="#36393A" transform="translate(255,348)"/>
<path d="M0,0 L5,0 L5,1 L4,1 L4,2 L1,2 L1,1 L0,1 Z " fill="#37393A" transform="translate(41,348)"/>
<path d="M0,0 L3,0 L3,1 L1,1 L1,3 L-1,3 L-1,4 L-2,4 L-2,2 L0,2 Z " fill="#373939" transform="translate(29,320)"/>
<path d="M0,0 L3,0 L3,1 L4,1 L4,2 L-1,2 L-1,1 L0,1 Z " fill="#363939" transform="translate(254,310)"/>
<path d="M0,0 L6,0 L6,1 L4,1 L4,2 L2,2 L2,1 L0,1 Z " fill="#1B000A" transform="translate(27,279)"/>
<path d="M0,0 L1,0 L1,8 L0,8 Z " fill="#1B000A" transform="translate(5,105)"/>
<path d="M0,0 L3,0 L3,1 L4,1 L4,2 L-1,2 L-1,1 L0,1 Z " fill="#19000B" transform="translate(102,1)"/>
<path d="M0,0 L7,0 L7,1 L0,1 Z " fill="#373A39" transform="translate(237,354)"/>
<path d="M0,0 L7,0 L7,1 L0,1 Z " fill="#383A39" transform="translate(57,354)"/>
<path d="M0,0 L7,0 L7,1 L0,1 Z " fill="#373939" transform="translate(244,352)"/>
<path d="M0,0 L7,0 L7,1 L0,1 Z " fill="#343A38" transform="translate(50,352)"/>
<path d="M0,0 L4,0 L4,1 L3,1 L3,2 L0,2 Z " fill="#373A3B" transform="translate(38,346)"/>
<path d="M0,0 L7,0 L7,1 L0,1 Z " fill="#35393A" transform="translate(247,309)"/>
<path d="M0,0 L7,0 L7,1 L0,1 Z " fill="#1B000B" transform="translate(105,0)"/>
<path d="M0,0 L6,0 L6,1 L0,1 Z " fill="#35393A" transform="translate(250,350)"/>
<path d="M0,0 L6,0 L6,1 L0,1 Z " fill="#383A3C" transform="translate(45,350)"/>
<path d="M0,0 L3,0 L3,2 L0,2 Z " fill="#1A0009" transform="translate(14,92)"/>
<path d="M0,0 L2,0 L2,1 L3,1 L3,2 L-1,2 L-1,1 L0,1 Z " fill="#1A000B" transform="translate(18,90)"/>
<path d="M0,0 L6,0 L6,1 L0,1 Z " fill="#19010A" transform="translate(29,85)"/>
<path d="M0,0 L2,0 L2,1 L3,1 L3,2 L-1,2 L-1,1 L0,1 Z " fill="#0E2A39" transform="translate(250,50)"/>
<path d="M0,0 L1,0 L1,3 L-2,3 L-2,2 L0,2 Z " fill="#36383B" transform="translate(272,337)"/>
<path d="M0,0 L1,0 L1,5 L0,5 Z " fill="#363A3D" transform="translate(25,332)"/>
<path d="M0,0 L1,0 L1,5 L0,5 Z " fill="#102839" transform="translate(272,121)"/>
<path d="M0,0 L5,0 L5,1 L0,1 Z " fill="#1A000B" transform="translate(20,89)"/>
<path d="M0,0 L5,0 L5,1 L0,1 Z " fill="#1B0009" transform="translate(24,87)"/>
<path d="M0,0 L2,0 L2,2 L-1,2 L-1,1 L0,1 Z " fill="#122739" transform="translate(253,52)"/>
<path d="M0,0 L5,0 L5,1 L0,1 Z " fill="#132837" transform="translate(242,47)"/>
<path d="M0,0 L2,0 L2,2 L-1,2 L-1,1 L0,1 Z " fill="#1B0009" transform="translate(219,21)"/>
<path d="M0,0 L2,0 L2,1 L3,1 L3,2 L0,2 Z " fill="#1A0007" transform="translate(83,12)"/>
<path d="M0,0 L1,0 L1,1 L2,1 L2,2 L-2,2 L-2,1 L0,1 Z " fill="#1B000A" transform="translate(89,8)"/>
<path d="M0,0 L5,0 L5,1 L0,1 Z " fill="#1C000B" transform="translate(191,5)"/>
<path d="M0,0 L1,0 L1,4 L0,4 Z " fill="#37393B" transform="translate(25,324)"/>
<path d="M0,0 L2,0 L2,3 L1,3 L1,1 L0,1 Z " fill="#132837" transform="translate(266,132)"/>
<path d="M0,0 L4,0 L4,1 L0,1 Z " fill="#11293A" transform="translate(246,49)"/>
<path d="M0,0 L1,0 L1,1 L2,1 L2,2 L-1,2 L-1,1 L0,1 Z " fill="#1B0009" transform="translate(217,19)"/>
<path d="M0,0 L1,0 L1,1 L2,1 L2,2 L1,2 L1,3 L0,3 Z " fill="#19010B" transform="translate(78,17)"/>
<path d="M0,0 L1,0 L1,1 L2,1 L2,2 L-1,2 L-1,1 L0,1 Z " fill="#1B000A" transform="translate(86,10)"/>
<path d="M0,0 L4,0 L4,1 L0,1 Z " fill="#1B0009" transform="translate(199,9)"/>
<path d="M0,0 L4,0 L4,1 L0,1 Z " fill="#1B000B" transform="translate(195,7)"/>
<path d="M0,0 L4,0 L4,1 L0,1 Z " fill="#1C0009" transform="translate(90,7)"/>
<path d="M0,0 L4,0 L4,1 L0,1 Z " fill="#1B0009" transform="translate(93,5)"/>
<path d="M0,0 L3,0 L3,1 L0,1 Z " fill="#363A3B" transform="translate(266,343)"/>
<path d="M0,0 L3,0 L3,1 L0,1 Z " fill="#36393B" transform="translate(32,343)"/>
<path d="M0,0 L2,0 L2,1 L1,1 L1,2 L0,2 Z " fill="#35393B" transform="translate(29,339)"/>
<path d="M0,0 L1,0 L1,1 L2,1 L2,2 L0,2 Z " fill="#373A3B" transform="translate(270,319)"/>
<path d="M0,0 L3,0 L3,1 L0,1 Z " fill="#383B3C" transform="translate(267,318)"/>
<path d="M0,0 L3,0 L3,1 L0,1 Z " fill="#373B3C" transform="translate(265,316)"/>
<path d="M0,0 L1,0 L1,1 L2,1 L2,2 L0,2 Z " fill="#102A38" transform="translate(261,59)"/>
<path d="M0,0 L2,0 L2,2 L1,2 L1,1 L0,1 Z " fill="#112939" transform="translate(257,56)"/>
<path d="M0,0 L1,0 L1,2 L-1,2 L-1,1 L0,1 Z " fill="#1B000A" transform="translate(227,28)"/>
<path d="M0,0 L2,0 L2,1 L1,1 L1,2 L0,2 Z " fill="#190009" transform="translate(223,25)"/>
<path d="M0,0 L3,0 L3,1 L0,1 Z " fill="#1A000A" transform="translate(214,18)"/>
<path d="M0,0 L3,0 L3,1 L0,1 Z " fill="#20040F" transform="translate(211,16)"/>
<path d="M0,0 L2,0 L2,1 L0,1 Z " fill="#363A3B" transform="translate(269,341)"/>
<path d="M0,0 L2,0 L2,1 L0,1 Z " fill="#37393B" transform="translate(30,341)"/>
<path d="M0,0 L1,0 L1,2 L0,2 Z " fill="#37393C" transform="translate(272,321)"/>
<path d="M0,0 L2,0 L2,1 L0,1 Z " fill="#343B39" transform="translate(32,318)"/>
<path d="M0,0 L2,0 L2,1 L0,1 Z " fill="#383939" transform="translate(34,316)"/>
<path d="M0,0 L2,0 L2,1 L0,1 Z " fill="#18010B" transform="translate(16,272)"/>
<path d="M0,0 L2,0 L2,1 L0,1 Z " fill="#19010B" transform="translate(14,270)"/>
<path d="M0,0 L2,0 L2,1 L0,1 Z " fill="#0E2B38" transform="translate(259,58)"/>
<path d="M0,0 L2,0 L2,1 L0,1 Z " fill="#230511" transform="translate(224,27)"/>
</svg>
