<?xml version="1.0" encoding="UTF-8"?>
<svg version="1.1" xmlns="http://www.w3.org/2000/svg" width="512" height="512">
<path d="M0,0 L9,0 L9,1 L12,1 L12,2 L14,2 L14,3 L17,3 L17,4 L19,4 L19,5 L22,5 L22,6 L24,6 L24,7 L26,7 L26,8 L28,8 L28,9 L29,9 L29,10 L31,10 L31,11 L33,11 L33,12 L34,12 L34,13 L36,13 L36,14 L37,14 L37,15 L39,15 L39,16 L41,16 L41,17 L43,17 L43,18 L45,18 L45,19 L48,19 L48,20 L50,20 L50,21 L52,21 L52,22 L54,22 L54,23 L56,23 L56,24 L58,24 L58,25 L60,25 L60,26 L62,26 L62,27 L64,27 L64,28 L66,28 L66,29 L68,29 L68,30 L70,30 L70,31 L72,31 L72,32 L73,32 L73,33 L75,33 L75,34 L77,34 L77,35 L78,35 L78,36 L80,36 L80,37 L82,37 L82,38 L83,38 L83,39 L85,39 L85,40 L86,40 L86,41 L88,41 L88,42 L89,42 L89,43 L91,43 L91,44 L92,44 L92,45 L94,45 L94,46 L96,46 L96,47 L97,47 L97,48 L99,48 L99,49 L100,49 L100,50 L102,50 L102,51 L103,51 L103,52 L105,52 L105,53 L106,53 L106,54 L107,54 L107,55 L109,55 L109,56 L110,56 L110,57 L112,57 L112,58 L113,58 L113,59 L114,59 L114,60 L116,60 L116,61 L117,61 L117,62 L118,62 L118,63 L120,63 L120,64 L121,64 L121,65 L123,65 L123,66 L124,66 L124,67 L126,67 L126,68 L127,68 L127,69 L128,69 L128,70 L130,70 L130,71 L131,71 L131,72 L132,72 L132,73 L134,73 L134,74 L135,74 L135,75 L136,75 L136,76 L137,76 L137,77 L139,77 L139,78 L140,78 L140,79 L141,79 L141,80 L142,80 L142,81 L143,81 L143,82 L145,82 L145,83 L146,83 L146,84 L147,84 L147,85 L148,85 L148,86 L150,86 L150,87 L151,87 L151,88 L152,88 L152,89 L153,89 L153,90 L155,90 L155,91 L156,91 L156,92 L157,92 L157,93 L159,93 L159,94 L160,94 L160,95 L162,95 L162,96 L163,96 L163,97 L164,97 L164,98 L165,98 L165,99 L167,99 L167,100 L168,100 L168,101 L169,101 L169,102 L171,102 L171,103 L173,103 L173,104 L176,104 L176,105 L199,105 L199,104 L208,104 L208,103 L222,103 L222,102 L235,102 L235,101 L265,101 L265,100 L292,100 L292,99 L299,99 L299,98 L304,98 L304,97 L308,97 L308,96 L311,96 L311,95 L314,95 L314,94 L317,94 L317,93 L319,93 L319,92 L322,92 L322,91 L324,91 L324,90 L326,90 L326,89 L328,89 L328,88 L331,88 L331,87 L333,87 L333,86 L335,86 L335,85 L337,85 L337,84 L339,84 L339,83 L341,83 L341,82 L343,82 L343,81 L345,81 L345,80 L347,80 L347,79 L349,79 L349,78 L351,78 L351,77 L353,77 L353,76 L355,76 L355,75 L357,75 L357,74 L359,74 L359,73 L362,73 L362,72 L364,72 L364,71 L366,71 L366,70 L369,70 L369,69 L371,69 L371,68 L374,68 L374,67 L376,67 L376,66 L379,66 L379,65 L381,65 L381,64 L384,64 L384,63 L386,63 L386,62 L389,62 L389,61 L391,61 L391,60 L394,60 L394,59 L397,59 L397,58 L399,58 L399,57 L402,57 L402,56 L404,56 L404,55 L407,55 L407,54 L409,54 L409,53 L412,53 L412,52 L414,52 L414,51 L417,51 L417,50 L419,50 L419,49 L421,49 L421,48 L423,48 L423,47 L426,47 L426,46 L428,46 L428,45 L430,45 L430,44 L432,44 L432,43 L434,43 L434,42 L436,42 L436,41 L438,41 L438,40 L441,40 L441,39 L443,39 L443,38 L445,38 L445,37 L447,37 L447,36 L449,36 L449,35 L451,35 L451,34 L453,34 L453,33 L455,33 L455,32 L457,32 L457,31 L460,31 L460,30 L462,30 L462,29 L464,29 L464,28 L467,28 L467,27 L469,27 L469,26 L471,26 L471,25 L474,25 L474,24 L476,24 L476,23 L479,23 L479,22 L482,22 L482,21 L484,21 L484,20 L487,20 L487,19 L491,19 L491,18 L495,18 L495,17 L499,17 L499,18 L500,18 L500,22 L499,22 L499,24 L498,24 L498,26 L497,26 L497,27 L496,27 L496,29 L495,29 L495,30 L494,30 L494,31 L493,31 L493,33 L492,33 L492,34 L491,34 L491,35 L490,35 L490,36 L489,36 L489,38 L488,38 L488,39 L487,39 L487,40 L486,40 L486,41 L485,41 L485,42 L484,42 L484,43 L483,43 L483,45 L482,45 L482,46 L481,46 L481,47 L480,47 L480,48 L479,48 L479,49 L478,49 L478,51 L477,51 L477,52 L476,52 L476,53 L475,53 L475,55 L474,55 L474,56 L473,56 L473,57 L472,57 L472,59 L471,59 L471,60 L470,60 L470,62 L469,62 L469,63 L468,63 L468,64 L467,64 L467,66 L466,66 L466,67 L465,67 L465,69 L464,69 L464,70 L463,70 L463,71 L462,71 L462,73 L461,73 L461,74 L460,74 L460,76 L459,76 L459,77 L458,77 L458,79 L457,79 L457,80 L456,80 L456,82 L455,82 L455,84 L454,84 L454,86 L453,86 L453,88 L452,88 L452,90 L451,90 L451,92 L450,92 L450,94 L449,94 L449,96 L448,96 L448,98 L447,98 L447,100 L446,100 L446,101 L445,101 L445,103 L444,103 L444,104 L443,104 L443,106 L442,106 L442,107 L441,107 L441,109 L440,109 L440,110 L439,110 L439,112 L438,112 L438,113 L437,113 L437,114 L436,114 L436,116 L435,116 L435,117 L434,117 L434,118 L433,118 L433,119 L432,119 L432,121 L431,121 L431,122 L430,122 L430,123 L429,123 L429,124 L428,124 L428,125 L427,125 L427,126 L426,126 L426,127 L424,127 L424,128 L423,128 L423,129 L422,129 L422,130 L421,130 L421,131 L419,131 L419,132 L418,132 L418,133 L417,133 L417,134 L415,134 L415,135 L414,135 L414,136 L412,136 L412,137 L411,137 L411,138 L410,138 L410,139 L408,139 L408,140 L407,140 L407,141 L406,141 L406,142 L405,142 L405,143 L403,143 L403,144 L402,144 L402,145 L401,145 L401,146 L400,146 L400,147 L398,147 L398,148 L397,148 L397,149 L396,149 L396,150 L395,150 L395,151 L393,151 L393,152 L392,152 L392,153 L391,153 L391,154 L390,154 L390,155 L388,155 L388,156 L387,156 L387,157 L386,157 L386,158 L385,158 L385,159 L383,159 L383,160 L382,160 L382,161 L381,161 L381,162 L380,162 L380,163 L378,163 L378,164 L377,164 L377,165 L376,165 L376,166 L375,166 L375,167 L373,167 L373,168 L372,168 L372,170 L373,170 L373,172 L374,172 L374,174 L375,174 L375,176 L376,176 L376,179 L377,179 L377,181 L378,181 L378,183 L379,183 L379,186 L380,186 L380,188 L381,188 L381,191 L382,191 L382,194 L383,194 L383,197 L384,197 L384,200 L385,200 L385,204 L386,204 L386,207 L387,207 L387,210 L388,210 L388,214 L389,214 L389,218 L390,218 L390,223 L391,223 L391,229 L392,229 L392,235 L393,235 L393,242 L394,242 L394,247 L395,247 L395,250 L396,250 L396,252 L397,252 L397,255 L398,255 L398,257 L399,257 L399,260 L400,260 L400,263 L401,263 L401,266 L402,266 L402,269 L403,269 L403,273 L404,273 L404,277 L405,277 L405,281 L406,281 L406,284 L407,284 L407,288 L408,288 L408,292 L409,292 L409,295 L410,295 L410,299 L411,299 L411,302 L412,302 L412,305 L413,305 L413,309 L414,309 L414,313 L415,313 L415,318 L416,318 L416,324 L417,324 L417,332 L418,332 L418,340 L419,340 L419,348 L420,348 L420,355 L421,355 L421,363 L422,363 L422,373 L423,373 L423,391 L424,391 L424,435 L76,435 L76,434 L77,434 L77,425 L78,425 L78,418 L79,418 L79,412 L80,412 L80,407 L81,407 L81,403 L82,403 L82,399 L83,399 L83,394 L84,394 L84,391 L85,391 L85,387 L86,387 L86,383 L87,383 L87,380 L88,380 L88,376 L89,376 L89,373 L90,373 L90,369 L91,369 L91,365 L92,365 L92,362 L93,362 L93,358 L94,358 L94,353 L95,353 L95,346 L96,346 L96,343 L95,343 L95,338 L94,338 L94,336 L93,336 L93,334 L92,334 L92,332 L91,332 L91,330 L90,330 L90,329 L89,329 L89,327 L88,327 L88,326 L87,326 L87,324 L86,324 L86,322 L85,322 L85,320 L84,320 L84,319 L83,319 L83,317 L82,317 L82,315 L81,315 L81,313 L80,313 L80,311 L79,311 L79,309 L78,309 L78,306 L77,306 L77,304 L76,304 L76,301 L75,301 L75,295 L74,295 L74,271 L75,271 L75,263 L76,263 L76,257 L77,257 L77,251 L78,251 L78,247 L79,247 L79,243 L80,243 L80,238 L81,238 L81,234 L82,234 L82,230 L83,230 L83,226 L84,226 L84,222 L85,222 L85,218 L86,218 L86,215 L87,215 L87,211 L88,211 L88,208 L89,208 L89,205 L90,205 L90,201 L91,201 L91,198 L92,198 L92,195 L93,195 L93,191 L94,191 L94,188 L95,188 L95,184 L96,184 L96,181 L97,181 L97,177 L98,177 L98,173 L99,173 L99,170 L100,170 L100,166 L101,166 L101,163 L102,163 L102,161 L103,161 L103,159 L102,159 L102,156 L101,156 L101,154 L100,154 L100,153 L99,153 L99,151 L98,151 L98,150 L97,150 L97,148 L96,148 L96,147 L95,147 L95,146 L94,146 L94,144 L93,144 L93,143 L92,143 L92,142 L91,142 L91,141 L90,141 L90,140 L89,140 L89,138 L88,138 L88,137 L87,137 L87,136 L86,136 L86,135 L85,135 L85,134 L84,134 L84,133 L83,133 L83,132 L82,132 L82,130 L81,130 L81,129 L80,129 L80,128 L79,128 L79,127 L78,127 L78,126 L77,126 L77,125 L76,125 L76,123 L75,123 L75,122 L74,122 L74,121 L73,121 L73,120 L72,120 L72,119 L71,119 L71,118 L70,118 L70,117 L69,117 L69,116 L68,116 L68,115 L67,115 L67,114 L66,114 L66,113 L65,113 L65,112 L64,112 L64,111 L63,111 L63,110 L62,110 L62,109 L61,109 L61,108 L60,108 L60,107 L59,107 L59,106 L58,106 L58,105 L57,105 L57,103 L56,103 L56,102 L55,102 L55,101 L54,101 L54,100 L53,100 L53,98 L52,98 L52,97 L51,97 L51,95 L50,95 L50,94 L49,94 L49,92 L48,92 L48,90 L47,90 L47,89 L46,89 L46,87 L45,87 L45,85 L44,85 L44,83 L43,83 L43,81 L42,81 L42,79 L41,79 L41,77 L40,77 L40,75 L39,75 L39,73 L38,73 L38,71 L37,71 L37,69 L36,69 L36,67 L35,67 L35,65 L34,65 L34,62 L33,62 L33,60 L32,60 L32,58 L31,58 L31,56 L30,56 L30,54 L29,54 L29,52 L28,52 L28,50 L27,50 L27,48 L26,48 L26,47 L25,47 L25,45 L24,45 L24,43 L23,43 L23,41 L22,41 L22,40 L21,40 L21,38 L20,38 L20,36 L19,36 L19,35 L18,35 L18,33 L17,33 L17,31 L16,31 L16,29 L15,29 L15,27 L14,27 L14,25 L13,25 L13,23 L12,23 L12,21 L11,21 L11,19 L10,19 L10,17 L9,17 L9,15 L8,15 L8,13 L7,13 L7,12 L6,12 L6,10 L5,10 L5,9 L4,9 L4,7 L3,7 L3,6 L2,6 L2,4 L1,4 L1,3 L0,3 Z " fill="#F0C022" transform="translate(12,77)"/>
<path d="M0,0 L9,0 L9,1 L12,1 L12,2 L14,2 L14,3 L17,3 L17,4 L19,4 L19,5 L22,5 L22,6 L24,6 L24,7 L26,7 L26,8 L28,8 L28,9 L29,9 L29,10 L31,10 L31,11 L33,11 L33,12 L34,12 L34,13 L36,13 L36,14 L37,14 L37,15 L39,15 L39,16 L41,16 L41,17 L43,17 L43,18 L45,18 L45,19 L48,19 L48,20 L50,20 L50,21 L52,21 L52,22 L54,22 L54,23 L56,23 L56,24 L58,24 L58,25 L60,25 L60,26 L62,26 L62,27 L64,27 L64,28 L66,28 L66,29 L68,29 L68,30 L70,30 L70,31 L72,31 L72,32 L73,32 L73,33 L75,33 L75,34 L77,34 L77,35 L78,35 L78,36 L80,36 L80,37 L82,37 L82,38 L83,38 L83,39 L85,39 L85,40 L86,40 L86,41 L88,41 L88,42 L89,42 L89,43 L91,43 L91,44 L92,44 L92,45 L94,45 L94,46 L96,46 L96,47 L97,47 L97,48 L99,48 L99,49 L100,49 L100,50 L102,50 L102,51 L103,51 L103,52 L105,52 L105,53 L106,53 L106,54 L107,54 L107,55 L109,55 L109,56 L110,56 L110,57 L112,57 L112,58 L113,58 L113,59 L114,59 L114,60 L116,60 L116,61 L117,61 L117,62 L118,62 L118,63 L120,63 L120,64 L121,64 L121,65 L123,65 L123,66 L124,66 L124,67 L126,67 L126,68 L127,68 L127,69 L128,69 L128,70 L130,70 L130,71 L131,71 L131,72 L132,72 L132,73 L134,73 L134,74 L135,74 L135,75 L136,75 L136,76 L137,76 L137,77 L139,77 L139,78 L140,78 L140,79 L141,79 L141,80 L142,80 L142,81 L143,81 L143,82 L145,82 L145,83 L146,83 L146,84 L147,84 L147,85 L148,85 L148,86 L150,86 L150,87 L151,87 L151,88 L152,88 L152,89 L153,89 L153,90 L155,90 L155,91 L156,91 L156,92 L157,92 L157,93 L159,93 L159,94 L160,94 L160,95 L162,95 L162,96 L163,96 L163,97 L164,97 L164,98 L165,98 L165,99 L167,99 L167,100 L168,100 L168,101 L169,101 L169,102 L171,102 L171,103 L173,103 L173,104 L176,104 L176,105 L199,105 L199,104 L208,104 L208,103 L222,103 L222,102 L235,102 L235,101 L265,101 L265,100 L292,100 L292,99 L299,99 L299,98 L304,98 L304,97 L308,97 L308,96 L311,96 L311,95 L314,95 L314,94 L317,94 L317,93 L319,93 L319,92 L322,92 L322,91 L324,91 L324,90 L326,90 L326,89 L328,89 L328,88 L331,88 L331,87 L333,87 L333,86 L335,86 L335,85 L337,85 L337,84 L339,84 L339,83 L341,83 L341,82 L343,82 L343,81 L345,81 L345,80 L347,80 L347,79 L349,79 L349,78 L351,78 L351,77 L353,77 L353,76 L355,76 L355,75 L357,75 L357,74 L359,74 L359,73 L362,73 L362,72 L364,72 L364,71 L366,71 L366,70 L369,70 L369,69 L371,69 L371,68 L374,68 L374,67 L376,67 L376,66 L379,66 L379,65 L381,65 L381,64 L384,64 L384,63 L386,63 L386,62 L389,62 L389,61 L391,61 L391,60 L394,60 L394,59 L397,59 L397,58 L399,58 L399,57 L402,57 L402,56 L404,56 L404,55 L407,55 L407,54 L409,54 L409,53 L412,53 L412,52 L414,52 L414,51 L417,51 L417,50 L419,50 L419,49 L421,49 L421,48 L423,48 L423,47 L426,47 L426,46 L428,46 L428,45 L430,45 L430,44 L432,44 L432,43 L434,43 L434,42 L436,42 L436,41 L438,41 L438,40 L441,40 L441,39 L443,39 L443,38 L445,38 L445,37 L447,37 L447,36 L449,36 L449,35 L451,35 L451,34 L453,34 L453,33 L455,33 L455,32 L457,32 L457,31 L460,31 L460,30 L462,30 L462,29 L464,29 L464,28 L467,28 L467,27 L469,27 L469,26 L471,26 L471,25 L474,25 L474,24 L476,24 L476,23 L479,23 L479,22 L482,22 L482,21 L484,21 L484,20 L487,20 L487,19 L491,19 L491,18 L495,18 L495,17 L499,17 L499,18 L500,18 L500,22 L499,22 L499,24 L498,24 L498,26 L497,26 L497,27 L496,27 L496,29 L495,29 L495,30 L494,30 L494,31 L493,31 L493,33 L492,33 L492,34 L491,34 L491,35 L490,35 L490,36 L489,36 L489,38 L488,38 L488,39 L487,39 L487,40 L486,40 L486,41 L485,41 L485,42 L484,42 L484,43 L483,43 L483,45 L482,45 L482,46 L481,46 L481,47 L480,47 L480,48 L479,48 L479,49 L478,49 L478,51 L477,51 L477,52 L476,52 L476,53 L475,53 L475,55 L474,55 L474,56 L473,56 L473,57 L472,57 L472,59 L471,59 L471,60 L470,60 L470,62 L469,62 L469,63 L468,63 L468,64 L467,64 L467,66 L466,66 L466,67 L465,67 L465,69 L464,69 L464,70 L463,70 L463,71 L462,71 L462,73 L461,73 L461,74 L460,74 L460,76 L459,76 L459,77 L458,77 L458,79 L457,79 L457,80 L456,80 L456,82 L455,82 L455,84 L454,84 L454,86 L453,86 L453,88 L452,88 L452,90 L451,90 L451,92 L450,92 L450,94 L449,94 L449,96 L448,96 L448,98 L447,98 L447,100 L446,100 L446,101 L445,101 L445,103 L444,103 L444,104 L443,104 L443,106 L442,106 L442,107 L441,107 L441,109 L440,109 L440,110 L439,110 L439,112 L438,112 L438,113 L437,113 L437,114 L436,114 L436,116 L435,116 L435,117 L434,117 L434,118 L433,118 L433,119 L432,119 L432,121 L431,121 L431,122 L430,122 L430,123 L429,123 L429,124 L428,124 L428,125 L427,125 L427,126 L426,126 L426,127 L424,127 L424,128 L423,128 L423,129 L422,129 L422,130 L421,130 L421,131 L419,131 L419,132 L418,132 L418,133 L417,133 L417,134 L415,134 L415,135 L414,135 L414,136 L412,136 L412,137 L411,137 L411,138 L410,138 L410,139 L408,139 L408,140 L407,140 L407,141 L406,141 L406,142 L405,142 L405,143 L403,143 L403,144 L402,144 L402,145 L401,145 L401,146 L400,146 L400,147 L398,147 L398,148 L397,148 L397,149 L396,149 L396,150 L395,150 L395,151 L393,151 L393,152 L392,152 L392,153 L391,153 L391,154 L390,154 L390,155 L388,155 L388,156 L387,156 L387,157 L386,157 L386,158 L385,158 L385,159 L383,159 L383,160 L382,160 L382,161 L381,161 L381,162 L380,162 L380,163 L378,163 L378,164 L377,164 L377,165 L376,165 L376,166 L375,166 L375,167 L373,167 L373,168 L372,168 L372,170 L373,170 L373,172 L374,172 L374,174 L375,174 L375,176 L376,176 L376,179 L377,179 L377,181 L378,181 L378,183 L379,183 L379,186 L380,186 L380,188 L381,188 L381,191 L382,191 L382,194 L383,194 L383,197 L384,197 L384,200 L385,200 L385,204 L386,204 L386,207 L387,207 L387,210 L388,210 L388,214 L389,214 L389,218 L390,218 L390,223 L391,223 L391,229 L392,229 L392,235 L393,235 L393,242 L394,242 L394,247 L395,247 L395,250 L396,250 L396,252 L397,252 L397,255 L398,255 L398,257 L399,257 L399,260 L400,260 L400,263 L401,263 L401,266 L402,266 L402,269 L403,269 L403,273 L404,273 L404,277 L405,277 L405,281 L406,281 L406,284 L407,284 L407,288 L408,288 L408,292 L409,292 L409,295 L410,295 L410,299 L411,299 L411,302 L412,302 L412,305 L413,305 L413,309 L414,309 L414,313 L415,313 L415,318 L416,318 L416,324 L417,324 L417,332 L418,332 L418,340 L419,340 L419,348 L420,348 L420,355 L421,355 L421,363 L422,363 L422,373 L423,373 L423,391 L424,391 L424,435 L418,435 L418,403 L417,403 L417,391 L416,391 L416,382 L415,382 L415,374 L414,374 L414,368 L413,368 L413,353 L412,353 L412,343 L411,343 L411,336 L410,336 L410,329 L409,329 L409,323 L408,323 L408,318 L407,318 L407,313 L406,313 L406,308 L405,308 L405,304 L404,304 L404,300 L403,300 L403,296 L402,296 L402,292 L401,292 L401,288 L400,288 L400,286 L399,286 L399,282 L398,282 L398,278 L397,278 L397,273 L396,273 L396,269 L395,269 L395,265 L394,265 L394,262 L393,262 L393,260 L392,260 L392,257 L391,257 L391,255 L390,255 L390,252 L389,252 L389,249 L388,249 L388,245 L387,245 L387,240 L386,240 L386,235 L385,235 L385,228 L384,228 L384,224 L383,224 L383,220 L382,220 L382,216 L381,216 L381,213 L380,213 L380,207 L379,207 L379,203 L378,203 L378,199 L377,199 L377,196 L376,196 L376,193 L375,193 L375,190 L374,190 L374,188 L373,188 L373,186 L372,186 L372,184 L371,184 L371,182 L370,182 L370,180 L369,180 L369,178 L368,178 L368,176 L367,176 L367,174 L366,174 L366,172 L365,172 L365,170 L364,170 L364,168 L363,168 L363,166 L362,166 L362,164 L361,164 L361,161 L360,161 L360,159 L359,159 L359,157 L358,157 L358,155 L357,155 L357,152 L358,152 L358,153 L359,153 L359,154 L360,154 L360,155 L361,155 L361,157 L362,157 L362,158 L363,158 L363,159 L364,159 L364,160 L365,160 L365,161 L366,161 L366,163 L367,163 L367,164 L368,164 L368,163 L370,163 L370,162 L371,162 L371,161 L372,161 L372,160 L374,160 L374,159 L375,159 L375,158 L376,158 L376,157 L377,157 L377,156 L379,156 L379,155 L380,155 L380,154 L381,154 L381,153 L382,153 L382,152 L383,152 L383,151 L385,151 L385,150 L386,150 L386,149 L387,149 L387,148 L388,148 L388,147 L389,147 L389,146 L391,146 L391,145 L392,145 L392,144 L393,144 L393,143 L394,143 L394,142 L395,142 L395,141 L396,141 L396,140 L398,140 L398,139 L399,139 L399,138 L400,138 L400,137 L401,137 L401,136 L402,136 L402,135 L404,135 L404,134 L405,134 L405,133 L406,133 L406,132 L407,132 L407,131 L408,131 L408,130 L410,130 L410,129 L411,129 L411,128 L412,128 L412,127 L413,127 L413,126 L415,126 L415,125 L416,125 L416,124 L417,124 L417,123 L418,123 L418,122 L419,122 L419,121 L421,121 L421,120 L422,120 L422,119 L423,119 L423,118 L424,118 L424,117 L425,117 L425,116 L426,116 L426,115 L427,115 L427,114 L428,114 L428,113 L429,113 L429,112 L430,112 L430,111 L431,111 L431,110 L432,110 L432,108 L433,108 L433,107 L434,107 L434,105 L435,105 L435,103 L436,103 L436,101 L437,101 L437,99 L438,99 L438,96 L439,96 L439,94 L440,94 L440,92 L441,92 L441,91 L442,91 L442,89 L443,89 L443,87 L444,87 L444,86 L445,86 L445,84 L446,84 L446,82 L447,82 L447,81 L448,81 L448,79 L449,79 L449,78 L450,78 L450,77 L451,77 L451,75 L452,75 L452,74 L453,74 L453,73 L454,73 L454,72 L455,72 L455,71 L456,71 L456,70 L457,70 L457,68 L458,68 L458,67 L459,67 L459,66 L460,66 L460,65 L461,65 L461,64 L459,64 L459,63 L458,63 L458,62 L456,62 L456,61 L454,61 L454,60 L452,60 L452,59 L449,59 L449,58 L441,58 L441,57 L418,57 L418,58 L414,58 L414,59 L411,59 L411,60 L408,60 L408,61 L405,61 L405,62 L402,62 L402,63 L400,63 L400,64 L397,64 L397,65 L395,65 L395,66 L392,66 L392,67 L390,67 L390,68 L387,68 L387,69 L385,69 L385,70 L382,70 L382,71 L380,71 L380,72 L378,72 L378,73 L375,73 L375,74 L373,74 L373,75 L371,75 L371,76 L368,76 L368,77 L366,77 L366,78 L364,78 L364,79 L362,79 L362,80 L360,80 L360,81 L358,81 L358,82 L356,82 L356,83 L354,83 L354,84 L352,84 L352,85 L350,85 L350,86 L349,86 L349,87 L347,87 L347,88 L345,88 L345,89 L343,89 L343,90 L341,90 L341,91 L340,91 L340,92 L338,92 L338,93 L336,93 L336,94 L334,94 L334,95 L332,95 L332,96 L330,96 L330,97 L328,97 L328,98 L326,98 L326,99 L323,99 L323,100 L321,100 L321,101 L319,101 L319,102 L317,102 L317,103 L314,103 L314,104 L310,104 L310,105 L306,105 L306,106 L293,106 L293,107 L230,107 L230,108 L219,108 L219,109 L204,109 L204,110 L168,110 L168,109 L166,109 L166,108 L165,108 L165,107 L163,107 L163,106 L162,106 L162,105 L161,105 L161,104 L160,104 L160,103 L159,103 L159,102 L158,102 L158,101 L157,101 L157,100 L155,100 L155,99 L154,99 L154,98 L153,98 L153,97 L152,97 L152,96 L150,96 L150,95 L149,95 L149,94 L148,94 L148,93 L147,93 L147,92 L145,92 L145,91 L144,91 L144,90 L143,90 L143,89 L142,89 L142,88 L141,88 L141,87 L139,87 L139,86 L138,86 L138,85 L137,85 L137,84 L136,84 L136,83 L134,83 L134,82 L133,82 L133,81 L132,81 L132,80 L131,80 L131,79 L129,79 L129,78 L128,78 L128,77 L127,77 L127,76 L126,76 L126,75 L124,75 L124,74 L123,74 L123,73 L122,73 L122,72 L120,72 L120,71 L119,71 L119,70 L118,70 L118,69 L116,69 L116,68 L115,68 L115,67 L113,67 L113,66 L112,66 L112,65 L110,65 L110,64 L109,64 L109,63 L108,63 L108,62 L106,62 L106,61 L105,61 L105,60 L103,60 L103,59 L102,59 L102,58 L100,58 L100,57 L99,57 L99,56 L97,56 L97,55 L96,55 L96,54 L94,54 L94,53 L93,53 L93,52 L91,52 L91,51 L89,51 L89,50 L88,50 L88,49 L87,49 L87,48 L85,48 L85,47 L83,47 L83,46 L82,46 L82,45 L80,45 L80,44 L79,44 L79,43 L77,43 L77,42 L76,42 L76,41 L74,41 L74,40 L72,40 L72,39 L71,39 L71,38 L69,38 L69,37 L67,37 L67,36 L65,36 L65,35 L63,35 L63,34 L62,34 L62,33 L60,33 L60,32 L58,32 L58,31 L56,31 L56,30 L54,30 L54,29 L52,29 L52,28 L50,28 L50,27 L48,27 L48,26 L46,26 L46,25 L44,25 L44,24 L42,24 L42,23 L41,23 L41,25 L40,25 L40,28 L39,28 L39,33 L38,33 L38,41 L37,41 L37,54 L38,54 L38,58 L39,58 L39,61 L40,61 L40,64 L41,64 L41,66 L42,66 L42,68 L43,68 L43,70 L44,70 L44,72 L45,72 L45,74 L46,74 L46,76 L47,76 L47,77 L48,77 L48,79 L49,79 L49,81 L50,81 L50,83 L51,83 L51,85 L52,85 L52,87 L53,87 L53,88 L54,88 L54,90 L55,90 L55,91 L56,91 L56,92 L57,92 L57,94 L58,94 L58,95 L59,95 L59,96 L60,96 L60,97 L61,97 L61,98 L62,98 L62,99 L63,99 L63,101 L64,101 L64,102 L65,102 L65,103 L66,103 L66,104 L67,104 L67,105 L68,105 L68,106 L69,106 L69,107 L70,107 L70,109 L71,109 L71,110 L72,110 L72,111 L73,111 L73,112 L74,112 L74,113 L75,113 L75,115 L76,115 L76,116 L77,116 L77,117 L78,117 L78,118 L79,118 L79,120 L80,120 L80,121 L81,121 L81,122 L82,122 L82,123 L83,123 L83,125 L84,125 L84,126 L85,126 L85,127 L86,127 L86,128 L87,128 L87,129 L88,129 L88,130 L89,130 L89,132 L90,132 L90,133 L91,133 L91,134 L92,134 L92,135 L93,135 L93,136 L94,136 L94,137 L95,137 L95,138 L96,138 L96,139 L97,139 L97,141 L98,141 L98,142 L99,142 L99,143 L100,143 L100,144 L101,144 L101,145 L102,145 L102,146 L103,146 L103,147 L104,147 L104,148 L105,148 L105,149 L106,149 L106,150 L107,150 L107,151 L109,151 L109,150 L110,150 L110,148 L111,148 L111,147 L112,147 L112,146 L113,146 L113,145 L115,145 L115,144 L116,144 L116,143 L118,143 L118,142 L120,142 L120,141 L123,141 L123,140 L126,140 L126,139 L129,139 L129,140 L128,140 L128,141 L127,141 L127,142 L125,142 L125,143 L124,143 L124,144 L123,144 L123,145 L122,145 L122,146 L121,146 L121,147 L120,147 L120,148 L119,148 L119,149 L118,149 L118,150 L117,150 L117,152 L116,152 L116,153 L115,153 L115,154 L114,154 L114,156 L113,156 L113,157 L112,157 L112,159 L111,159 L111,161 L110,161 L110,163 L109,163 L109,166 L108,166 L108,168 L107,168 L107,171 L106,171 L106,175 L105,175 L105,178 L104,178 L104,182 L103,182 L103,185 L102,185 L102,189 L101,189 L101,192 L100,192 L100,196 L99,196 L99,200 L98,200 L98,203 L97,203 L97,207 L96,207 L96,211 L95,211 L95,215 L94,215 L94,219 L93,219 L93,223 L92,223 L92,227 L91,227 L91,231 L90,231 L90,235 L89,235 L89,241 L107,241 L107,242 L109,242 L109,243 L112,243 L112,244 L114,244 L114,245 L116,245 L116,246 L118,246 L118,247 L119,247 L119,248 L120,248 L120,249 L121,249 L121,251 L122,251 L122,254 L123,254 L123,257 L124,257 L124,269 L123,269 L123,271 L122,271 L122,274 L121,274 L121,276 L120,276 L120,278 L119,278 L119,279 L118,279 L118,281 L117,281 L117,282 L115,282 L115,283 L114,283 L114,284 L112,284 L112,285 L109,285 L109,286 L106,286 L106,287 L93,287 L93,286 L90,286 L90,285 L89,285 L89,284 L87,284 L87,282 L86,282 L86,281 L85,281 L85,280 L84,280 L84,278 L83,278 L83,277 L82,277 L82,274 L81,274 L81,300 L82,300 L82,303 L83,303 L83,305 L84,305 L84,307 L85,307 L85,309 L86,309 L86,310 L87,310 L87,312 L88,312 L88,313 L89,313 L89,315 L90,315 L90,317 L91,317 L91,318 L92,318 L92,320 L93,320 L93,322 L94,322 L94,323 L95,323 L95,325 L96,325 L96,326 L97,326 L97,328 L98,328 L98,329 L99,329 L99,330 L100,330 L100,332 L101,332 L101,334 L102,334 L102,335 L103,335 L103,338 L104,338 L104,340 L105,340 L105,349 L104,349 L104,351 L103,351 L103,353 L102,353 L102,356 L101,356 L101,359 L100,359 L100,362 L99,362 L99,364 L98,364 L98,367 L97,367 L97,370 L96,370 L96,373 L95,373 L95,375 L94,375 L94,377 L93,377 L93,380 L92,380 L92,383 L91,383 L91,386 L90,386 L90,389 L89,389 L89,393 L88,393 L88,398 L87,398 L87,404 L86,404 L86,412 L85,412 L85,435 L76,435 L76,434 L77,434 L77,425 L78,425 L78,418 L79,418 L79,412 L80,412 L80,407 L81,407 L81,403 L82,403 L82,399 L83,399 L83,394 L84,394 L84,391 L85,391 L85,387 L86,387 L86,383 L87,383 L87,380 L88,380 L88,376 L89,376 L89,373 L90,373 L90,369 L91,369 L91,365 L92,365 L92,362 L93,362 L93,358 L94,358 L94,353 L95,353 L95,346 L96,346 L96,343 L95,343 L95,338 L94,338 L94,336 L93,336 L93,334 L92,334 L92,332 L91,332 L91,330 L90,330 L90,329 L89,329 L89,327 L88,327 L88,326 L87,326 L87,324 L86,324 L86,322 L85,322 L85,320 L84,320 L84,319 L83,319 L83,317 L82,317 L82,315 L81,315 L81,313 L80,313 L80,311 L79,311 L79,309 L78,309 L78,306 L77,306 L77,304 L76,304 L76,301 L75,301 L75,295 L74,295 L74,271 L75,271 L75,263 L76,263 L76,257 L77,257 L77,251 L78,251 L78,247 L79,247 L79,243 L80,243 L80,238 L81,238 L81,234 L82,234 L82,230 L83,230 L83,226 L84,226 L84,222 L85,222 L85,218 L86,218 L86,215 L87,215 L87,211 L88,211 L88,208 L89,208 L89,205 L90,205 L90,201 L91,201 L91,198 L92,198 L92,195 L93,195 L93,191 L94,191 L94,188 L95,188 L95,184 L96,184 L96,181 L97,181 L97,177 L98,177 L98,173 L99,173 L99,170 L100,170 L100,166 L101,166 L101,163 L102,163 L102,161 L103,161 L103,159 L102,159 L102,156 L101,156 L101,154 L100,154 L100,153 L99,153 L99,151 L98,151 L98,150 L97,150 L97,148 L96,148 L96,147 L95,147 L95,146 L94,146 L94,144 L93,144 L93,143 L92,143 L92,142 L91,142 L91,141 L90,141 L90,140 L89,140 L89,138 L88,138 L88,137 L87,137 L87,136 L86,136 L86,135 L85,135 L85,134 L84,134 L84,133 L83,133 L83,132 L82,132 L82,130 L81,130 L81,129 L80,129 L80,128 L79,128 L79,127 L78,127 L78,126 L77,126 L77,125 L76,125 L76,123 L75,123 L75,122 L74,122 L74,121 L73,121 L73,120 L72,120 L72,119 L71,119 L71,118 L70,118 L70,117 L69,117 L69,116 L68,116 L68,115 L67,115 L67,114 L66,114 L66,113 L65,113 L65,112 L64,112 L64,111 L63,111 L63,110 L62,110 L62,109 L61,109 L61,108 L60,108 L60,107 L59,107 L59,106 L58,106 L58,105 L57,105 L57,103 L56,103 L56,102 L55,102 L55,101 L54,101 L54,100 L53,100 L53,98 L52,98 L52,97 L51,97 L51,95 L50,95 L50,94 L49,94 L49,92 L48,92 L48,90 L47,90 L47,89 L46,89 L46,87 L45,87 L45,85 L44,85 L44,83 L43,83 L43,81 L42,81 L42,79 L41,79 L41,77 L40,77 L40,75 L39,75 L39,73 L38,73 L38,71 L37,71 L37,69 L36,69 L36,67 L35,67 L35,65 L34,65 L34,62 L33,62 L33,60 L32,60 L32,58 L31,58 L31,56 L30,56 L30,54 L29,54 L29,52 L28,52 L28,50 L27,50 L27,48 L26,48 L26,47 L25,47 L25,45 L24,45 L24,43 L23,43 L23,41 L22,41 L22,40 L21,40 L21,38 L20,38 L20,36 L19,36 L19,35 L18,35 L18,33 L17,33 L17,31 L16,31 L16,29 L15,29 L15,27 L14,27 L14,25 L13,25 L13,23 L12,23 L12,21 L11,21 L11,19 L10,19 L10,17 L9,17 L9,15 L8,15 L8,13 L7,13 L7,12 L6,12 L6,10 L5,10 L5,9 L4,9 L4,7 L3,7 L3,6 L2,6 L2,4 L1,4 L1,3 L0,3 Z " fill="#030200" transform="translate(12,77)"/>
<path d="M0,0 L29,0 L29,1 L34,1 L34,2 L37,2 L37,3 L39,3 L39,4 L40,4 L40,5 L42,5 L42,6 L43,6 L43,7 L44,7 L44,9 L45,9 L45,10 L46,10 L46,12 L47,12 L47,14 L48,14 L48,19 L49,19 L49,34 L48,34 L48,37 L47,37 L47,39 L46,39 L46,41 L45,41 L45,43 L44,43 L44,44 L43,44 L43,45 L42,45 L42,46 L41,46 L41,47 L40,47 L40,48 L38,48 L38,49 L35,49 L35,50 L32,50 L32,51 L28,51 L28,52 L11,52 L11,51 L7,51 L7,50 L5,50 L5,49 L3,49 L3,48 L1,48 L1,47 L0,47 L0,46 L-1,46 L-1,45 L-2,45 L-2,44 L-3,44 L-3,43 L-4,43 L-4,42 L-5,42 L-5,41 L-6,41 L-6,40 L-7,40 L-7,39 L-8,39 L-8,38 L-9,38 L-9,37 L-10,37 L-10,35 L-11,35 L-11,34 L-12,34 L-12,32 L-13,32 L-13,30 L-14,30 L-14,27 L-15,27 L-15,25 L-16,25 L-16,14 L-15,14 L-15,11 L-14,11 L-14,9 L-13,9 L-13,7 L-12,7 L-12,6 L-11,6 L-11,5 L-10,5 L-10,4 L-8,4 L-8,3 L-6,3 L-6,2 L-4,2 L-4,1 L0,1 Z " fill="#F17D5A" transform="translate(218,344)"/>
<path d="M0,0 L21,0 L21,1 L24,1 L24,2 L26,2 L26,3 L27,3 L27,4 L28,4 L28,5 L29,5 L29,6 L30,6 L30,7 L31,7 L31,8 L32,8 L32,9 L33,9 L33,11 L34,11 L34,13 L35,13 L35,15 L36,15 L36,18 L37,18 L37,33 L36,33 L36,35 L35,35 L35,38 L34,38 L34,40 L33,40 L33,41 L32,41 L32,42 L31,42 L31,43 L30,43 L30,44 L29,44 L29,45 L28,45 L28,46 L26,46 L26,47 L23,47 L23,48 L21,48 L21,49 L1,49 L1,48 L-3,48 L-3,47 L-5,47 L-5,46 L-6,46 L-6,45 L-8,45 L-8,44 L-9,44 L-9,43 L-10,43 L-10,41 L-11,41 L-11,39 L-12,39 L-12,37 L-13,37 L-13,34 L-14,34 L-14,31 L-15,31 L-15,18 L-14,18 L-14,13 L-13,13 L-13,11 L-12,11 L-12,9 L-11,9 L-11,8 L-10,8 L-10,6 L-9,6 L-9,5 L-8,5 L-8,4 L-6,4 L-6,3 L-5,3 L-5,2 L-3,2 L-3,1 L0,1 Z " fill="#D85B13" transform="translate(340,319)"/>
<path d="M0,0 L15,0 L15,1 L18,1 L18,2 L21,2 L21,3 L23,3 L23,4 L25,4 L25,5 L26,5 L26,6 L27,6 L27,7 L28,7 L28,8 L29,8 L29,9 L30,9 L30,11 L31,11 L31,13 L32,13 L32,27 L31,27 L31,30 L30,30 L30,32 L29,32 L29,34 L28,34 L28,36 L27,36 L27,37 L26,37 L26,38 L25,38 L25,39 L24,39 L24,40 L22,40 L22,41 L19,41 L19,42 L4,42 L4,41 L1,41 L1,40 L-1,40 L-1,39 L-2,39 L-2,38 L-4,38 L-4,37 L-5,37 L-5,36 L-6,36 L-6,35 L-7,35 L-7,34 L-8,34 L-8,33 L-9,33 L-9,31 L-10,31 L-10,29 L-11,29 L-11,27 L-12,27 L-12,14 L-11,14 L-11,11 L-10,11 L-10,9 L-9,9 L-9,7 L-8,7 L-8,6 L-7,6 L-7,5 L-6,5 L-6,4 L-5,4 L-5,3 L-3,3 L-3,2 L-2,2 L-2,1 L0,1 Z " fill="#030301" transform="translate(300,259)"/>
<path d="M0,0 L12,0 L12,1 L16,1 L16,2 L18,2 L18,3 L20,3 L20,4 L21,4 L21,5 L22,5 L22,6 L23,6 L23,8 L24,8 L24,9 L25,9 L25,11 L26,11 L26,13 L27,13 L27,16 L28,16 L28,26 L27,26 L27,29 L26,29 L26,31 L25,31 L25,32 L24,32 L24,33 L23,33 L23,34 L22,34 L22,35 L21,35 L21,36 L20,36 L20,37 L18,37 L18,38 L16,38 L16,39 L1,39 L1,38 L-2,38 L-2,37 L-4,37 L-4,36 L-6,36 L-6,35 L-7,35 L-7,34 L-8,34 L-8,33 L-9,33 L-9,32 L-10,32 L-10,30 L-11,30 L-11,28 L-12,28 L-12,26 L-13,26 L-13,24 L-14,24 L-14,15 L-13,15 L-13,11 L-12,11 L-12,9 L-11,9 L-11,8 L-10,8 L-10,6 L-9,6 L-9,5 L-7,5 L-7,4 L-6,4 L-6,3 L-5,3 L-5,2 L-3,2 L-3,1 L0,1 Z " fill="#050401" transform="translate(161,259)"/>
<path d="M0,0 L29,0 L29,1 L34,1 L34,2 L37,2 L37,3 L39,3 L39,4 L40,4 L40,5 L42,5 L42,6 L43,6 L43,7 L44,7 L44,9 L45,9 L45,10 L46,10 L46,12 L47,12 L47,14 L48,14 L48,19 L49,19 L49,34 L48,34 L48,37 L47,37 L47,39 L46,39 L46,41 L45,41 L45,43 L44,43 L44,44 L43,44 L43,45 L42,45 L42,46 L41,46 L41,47 L40,47 L40,48 L38,48 L38,49 L35,49 L35,50 L32,50 L32,51 L28,51 L28,52 L11,52 L11,51 L7,51 L7,50 L5,50 L5,49 L3,49 L3,48 L1,48 L1,47 L0,47 L0,46 L-1,46 L-1,45 L-2,45 L-2,44 L-3,44 L-3,43 L-4,43 L-4,42 L-5,42 L-5,41 L-6,41 L-6,40 L-7,40 L-7,39 L-8,39 L-8,38 L-9,38 L-9,37 L-10,37 L-10,35 L-11,35 L-11,34 L-12,34 L-12,32 L-13,32 L-13,30 L-14,30 L-14,27 L-15,27 L-15,25 L-16,25 L-16,14 L-15,14 L-15,11 L-14,11 L-14,9 L-13,9 L-13,7 L-12,7 L-12,6 L-11,6 L-11,5 L-10,5 L-10,4 L-8,4 L-8,3 L-6,3 L-6,2 L-4,2 L-4,1 L0,1 Z M14,7 L14,8 L12,8 L12,9 L10,9 L10,10 L8,10 L8,11 L7,11 L7,12 L6,12 L6,13 L5,13 L5,14 L4,14 L4,15 L3,15 L3,16 L2,16 L2,18 L1,18 L1,19 L0,19 L0,21 L-1,21 L-1,23 L-2,23 L-2,25 L-3,25 L-3,26 L-4,26 L-4,28 L-5,28 L-5,31 L-4,31 L-4,32 L-3,32 L-3,34 L-2,34 L-2,35 L-1,35 L-1,37 L0,37 L0,38 L1,38 L1,39 L2,39 L2,40 L3,40 L3,41 L4,41 L4,42 L6,42 L6,43 L7,43 L7,44 L9,44 L9,45 L11,45 L11,46 L14,46 L14,47 L18,47 L18,48 L26,48 L26,47 L30,47 L30,46 L33,46 L33,45 L35,45 L35,44 L37,44 L37,43 L38,43 L38,42 L39,42 L39,41 L40,41 L40,40 L41,40 L41,39 L42,39 L42,37 L43,37 L43,33 L44,33 L44,18 L43,18 L43,16 L42,16 L42,14 L41,14 L41,13 L40,13 L40,12 L39,12 L39,11 L38,11 L38,10 L36,10 L36,9 L34,9 L34,8 L31,8 L31,7 Z " fill="#080502" transform="translate(218,344)"/>
<path d="M0,0 L12,0 L12,1 L15,1 L15,2 L18,2 L18,3 L20,3 L20,4 L21,4 L21,5 L22,5 L22,7 L23,7 L23,8 L24,8 L24,10 L25,10 L25,25 L24,25 L24,28 L23,28 L23,30 L22,30 L22,32 L21,32 L21,33 L19,33 L19,34 L18,34 L18,35 L15,35 L15,36 L12,36 L12,37 L2,37 L2,36 L-1,36 L-1,35 L-2,35 L-2,34 L-4,34 L-4,33 L-5,33 L-5,32 L-6,32 L-6,31 L-7,31 L-7,30 L-8,30 L-8,29 L-9,29 L-9,26 L-10,26 L-10,8 L-9,8 L-9,4 L-7,4 L-7,3 L-5,3 L-5,2 L-3,2 L-3,1 L0,1 Z " fill="#D75A13" transform="translate(106,323)"/>
<path d="M0,0 L21,0 L21,1 L24,1 L24,2 L26,2 L26,3 L27,3 L27,4 L28,4 L28,5 L29,5 L29,6 L30,6 L30,7 L31,7 L31,8 L32,8 L32,9 L33,9 L33,11 L34,11 L34,13 L35,13 L35,15 L36,15 L36,18 L37,18 L37,33 L36,33 L36,35 L35,35 L35,38 L34,38 L34,40 L33,40 L33,41 L32,41 L32,42 L31,42 L31,43 L30,43 L30,44 L29,44 L29,45 L28,45 L28,46 L26,46 L26,47 L23,47 L23,48 L21,48 L21,49 L1,49 L1,48 L-3,48 L-3,47 L-5,47 L-5,46 L-6,46 L-6,45 L-8,45 L-8,44 L-9,44 L-9,43 L-10,43 L-10,41 L-11,41 L-11,39 L-12,39 L-12,37 L-13,37 L-13,34 L-14,34 L-14,31 L-15,31 L-15,18 L-14,18 L-14,13 L-13,13 L-13,11 L-12,11 L-12,9 L-11,9 L-11,8 L-10,8 L-10,6 L-9,6 L-9,5 L-8,5 L-8,4 L-6,4 L-6,3 L-5,3 L-5,2 L-3,2 L-3,1 L0,1 Z M3,5 L3,6 L0,6 L0,7 L-3,7 L-3,8 L-4,8 L-4,9 L-5,9 L-5,10 L-6,10 L-6,11 L-7,11 L-7,13 L-8,13 L-8,15 L-9,15 L-9,18 L-10,18 L-10,28 L-9,28 L-9,32 L-8,32 L-8,36 L-7,36 L-7,37 L-6,37 L-6,39 L-5,39 L-5,40 L-3,40 L-3,41 L-2,41 L-2,42 L0,42 L0,43 L1,43 L1,44 L4,44 L4,45 L14,45 L14,44 L22,44 L22,43 L24,43 L24,42 L25,42 L25,41 L27,41 L27,40 L28,40 L28,39 L29,39 L29,37 L30,37 L30,35 L31,35 L31,32 L32,32 L32,22 L31,22 L31,17 L30,17 L30,14 L29,14 L29,12 L28,12 L28,11 L27,11 L27,9 L26,9 L26,8 L24,8 L24,7 L22,7 L22,6 L19,6 L19,5 Z " fill="#5C2701" transform="translate(340,319)"/>
<path d="M0,0 L1,0 L1,2 L19,2 L19,3 L21,3 L21,4 L24,4 L24,5 L26,5 L26,6 L28,6 L28,7 L30,7 L30,8 L31,8 L31,9 L32,9 L32,10 L33,10 L33,12 L34,12 L34,15 L35,15 L35,18 L36,18 L36,30 L35,30 L35,32 L34,32 L34,35 L33,35 L33,37 L32,37 L32,39 L31,39 L31,40 L30,40 L30,42 L29,42 L29,43 L27,43 L27,44 L26,44 L26,45 L24,45 L24,46 L21,46 L21,47 L18,47 L18,48 L5,48 L5,47 L2,47 L2,46 L1,46 L1,45 L-1,45 L-1,43 L-2,43 L-2,42 L-3,42 L-3,41 L-4,41 L-4,39 L-5,39 L-5,38 L-6,38 L-6,35 L-7,35 L-7,29 L-6,29 L-6,26 L-5,26 L-5,21 L-4,21 L-4,33 L-3,33 L-3,36 L-2,36 L-2,37 L-1,37 L-1,38 L0,38 L0,39 L1,39 L1,40 L2,40 L2,41 L4,41 L4,42 L5,42 L5,43 L8,43 L8,44 L18,44 L18,43 L21,43 L21,42 L24,42 L24,41 L25,41 L25,40 L27,40 L27,39 L28,39 L28,37 L29,37 L29,35 L30,35 L30,32 L31,32 L31,17 L30,17 L30,15 L29,15 L29,14 L28,14 L28,12 L27,12 L27,11 L26,11 L26,10 L24,10 L24,9 L21,9 L21,8 L18,8 L18,7 L6,7 L6,8 L3,8 L3,9 L1,9 L1,10 L-1,10 L-1,11 L-2,11 L-2,9 L-1,9 L-1,4 L0,4 Z " fill="#5E2901" transform="translate(100,316)"/>
<path d="M0,0 L13,0 L13,1 L17,1 L17,2 L19,2 L19,3 L20,3 L20,5 L21,5 L21,13 L20,13 L20,14 L19,14 L19,16 L18,16 L18,17 L10,17 L10,16 L7,16 L7,15 L5,15 L5,14 L3,14 L3,13 L1,13 L1,12 L-1,12 L-1,11 L-2,11 L-2,10 L-4,10 L-4,9 L-5,9 L-5,8 L-6,8 L-6,4 L-5,4 L-5,3 L-4,3 L-4,2 L-2,2 L-2,1 L0,1 Z " fill="#080601" transform="translate(217,301)"/>
<path d="M0,0 L6,0 L6,1 L7,1 L7,2 L8,2 L8,3 L9,3 L9,4 L10,4 L10,10 L9,10 L9,12 L8,12 L8,13 L6,13 L6,14 L-1,14 L-1,13 L-2,13 L-2,12 L-3,12 L-3,11 L-4,11 L-4,3 L-3,3 L-3,2 L-2,2 L-2,1 L0,1 Z " fill="#F6F6F6" transform="translate(299,264)"/>
<path d="M0,0 L7,0 L7,1 L9,1 L9,2 L10,2 L10,4 L11,4 L11,9 L10,9 L10,11 L9,11 L9,12 L8,12 L8,13 L7,13 L7,14 L1,14 L1,13 L-1,13 L-1,12 L-2,12 L-2,10 L-3,10 L-3,3 L-2,3 L-2,2 L-1,2 L-1,1 L0,1 Z " fill="#F7F7F7" transform="translate(157,264)"/>
</svg>
